/* XPM */
static char *result[] = {
/* columns rows colors chars-per-pixel */
"60 60 162 2 ",
"   c #010100",
".  c #1D060B",
"X  c #161200",
"o  c #2A0B0E",
"O  c #320201",
"+  c #370B02",
"@  c #2E0019",
"#  c #25001A",
"$  c #380716",
"%  c #3D0E16",
"&  c #330319",
"*  c #390718",
"=  c #370918",
"-  c #3A0B18",
";  c #360512",
":  c #3F1018",
">  c #381411",
",  c #2A2300",
"<  c #342B00",
"1  c #410500",
"2  c #420B05",
"3  c #430E0A",
"4  c #4F1C0C",
"5  c #4E0F1A",
"6  c #461716",
"7  c #471817",
"8  c #4A1B16",
"9  c #461618",
"0  c #4A161C",
"q  c #471818",
"w  c #491A1B",
"e  c #423700",
"r  c #543D06",
"t  c #4F2015",
"y  c #512315",
"u  c #5C2E14",
"i  c #5F3114",
"p  c #6D3800",
"a  c #6B3C0F",
"s  c #633A0F",
"d  c #6B3B13",
"f  c #623314",
"g  c #431625",
"h  c #4E1624",
"j  c #4B1C24",
"k  c #421A28",
"l  c #531529",
"z  c #482126",
"x  c #4A232B",
"c  c #4A2C3C",
"v  c #4E313F",
"b  c #5B4B01",
"n  c #614004",
"m  c #7F520F",
"M  c #6E4111",
"N  c #724412",
"B  c #794B10",
"V  c #786501",
"C  c #4E3444",
"Z  c #503749",
"A  c #503646",
"S  c #523D52",
"D  c #503F5A",
"F  c #4D4C5E",
"G  c #7E6B4D",
"H  c #564A67",
"J  c #5A597E",
"K  c #5B567C",
"L  c #6B656D",
"P  c #83560F",
"I  c #825510",
"U  c #875910",
"Y  c #826E00",
"T  c #91650E",
"R  c #996D0D",
"E  c #95680D",
"W  c #977F00",
"Q  c #9E730E",
"!  c #A57604",
"~  c #A2760C",
"^  c #A5790C",
"/  c #AA7E0B",
"(  c #A31D72",
")  c #9E8500",
"_  c #AD810B",
"`  c #B1840B",
"'  c #B58A0A",
"]  c #B88C09",
"[  c #BD9209",
"{  c #C39808",
"}  c #CFA507",
"|  c #CEAC01",
" . c #D4AA06",
".. c #D9AE06",
"X. c #DDB305",
"o. c #DBB801",
"O. c #E3BA05",
"+. c #EEC602",
"@. c #EFC901",
"#. c #F4CB03",
"$. c #F9CF02",
"%. c #F0C603",
"&. c #FDD302",
"*. c #FFDC01",
"=. c #FFE201",
"-. c #FFE900",
";. c #FFF201",
":. c #FFFD00",
">. c #5D5C84",
",. c #5E5E88",
"<. c #575E92",
"1. c #6A5791",
"2. c #5F638E",
"3. c #5D6594",
"4. c #5F6893",
"5. c #616795",
"6. c #626EA0",
"7. c #7E7AD5",
"8. c #9F0C91",
"9. c #A60388",
"0. c #8F4BB9",
"q. c #AF3BD3",
"w. c #DC06D5",
"e. c #CC1ED9",
"r. c #E203DC",
"t. c #E400D5",
"y. c #DF18ED",
"u. c #FE01FD",
"i. c #FF08FF",
"p. c #F803F6",
"a. c #E01FF6",
"s. c #E81FFF",
"d. c #E320FF",
"f. c #BD40ED",
"g. c #C642FB",
"h. c #6880B4",
"j. c #6984BB",
"k. c #6483BA",
"l. c #6987C7",
"z. c #6C8FD5",
"x. c #6C92D5",
"c. c #6D96DB",
"v. c #6E98DD",
"b. c #6F9BE4",
"n. c #7693E5",
"m. c #68A2E2",
"M. c #70A0EC",
"N. c #73A6F5",
"B. c #75A5FA",
"V. c #74ABFD",
"C. c #79ABFB",
"Z. c #6DB7FF",
"A. c #6FBFFF",
"S. c #76B2FF",
"D. c #79B4FF",
"F. c #74BFFF",
"G. c #79BBFF",
"H. c #70C3FF",
"J. c #7BC2FF",
"K. c #898DFA",
"L. c #8F98FF",
"P. c None",
/* pixels */
"P.P.P.P.P.P.P.P.P.P.P.P.P.P.P.P.P.P.P.P.P.P.P.P.P.P.P.P.P.P.P.P.P.P.P.P.P.P.P.P.P.P.P.P.P.P.P.P.P.P.P.P.P.P.P.P.P.P.P.P.",
"P.P.P.P.P.P.P.P.P.P.P.P.P.P.P.P.P.P.P.P.P.P.P.P.P.P.P.P.P.P.P.P.P.P.P.P.P.P.P.P.P.P.P.P.P.P.P.P.P.P.P.P.P.P.P.P.P.P.P.P.",
"P.P.P.P.P.P.P.P.P.P.P.P.P.P.P.P.P.P.P.P.P.P.P.P.P.P.P.P.P.P.P.P.P.P.P.P.P.P.P.P.P.P.P.P.P.P.P.P.P.P.P.P.P.P.P.P.P.P.P.P.",
"P.P.P.P.P.P.P.P.P.P.P.P.P.P.P.P.P.P.P.P.P.P.6 6 q 6 7 q 6 q 6 6 7 7 7 6 q 6 P.P.P.P.P.P.P.P.P.P.P.P.P.P.P.P.P.P.P.P.P.P.",
"P.P.P.P.P.P.P.P.P.P.P.P.P.P.P.P.P.P.P.P.P.P.6 6 q 6 6 6 q 6 6 6 6 q q 6 6 7 q P.P.P.P.P.P.P.P.P.P.P.P.P.P.P.P.P.P.P.P.P.",
"P.P.P.P.P.P.P.P.P.P.P.P.P.P.P.P.P.P.P.6 q 7 6 q q q q 7 7 q q q q 7 6 q q 7 7 6 P.P.P.P.P.P.P.P.P.P.P.P.P.P.P.P.P.P.P.P.",
"P.P.P.P.P.P.P.P.P.P.P.P.P.P.P.P.P.P.q 6 q 6 6 6 q 6 7 q q 7 7 6 7 q 0 6 6 7 6 6 6 P.P.P.P.P.P.P.P.P.P.P.P.P.P.P.P.P.P.P.",
"P.P.P.P.P.P.P.P.P.P.P.P.P.P.P.P.P.6 6 q 6 q q q 7 q q q q q q q 7 7 7 6 q q q q q 6 P.P.P.P.P.P.P.P.P.P.P.P.P.P.P.P.P.P.",
"P.P.P.P.P.P.P.P.P.P.P.P.P.P.P.6 6 6 7 7 7 6 6 7 6 6 6 7 q 6 q q 0 7 7 q 6 7 6 7 7 6 6 6 P.P.P.P.P.P.P.P.P.P.P.P.P.P.P.P.",
"P.P.P.P.P.P.P.P.P.P.P.P.P.P.P.q 6 6 q 7 7 7 7 7 7 q q q 7 q q 7 q 7 7 7 q q q 6 q 6 6 6 P.P.P.P.P.P.P.P.P.P.P.P.P.P.P.P.",
"P.P.P.P.P.P.P.P.P.P.P.P.P.P.P.6 6 q 7 6 6 9 6 6 9 6 6 7 6 7 q 6 q q q q q q 6 q 6 q 7 q P.P.P.P.P.P.P.P.P.P.P.P.P.P.P.P.",
"P.P.P.P.P.P.P.P.P.P.P.P.P.P.P.6 7 q 7 6 8 y 7 7 y t 7 7 q 7 7 q q 7 q q 7 q q 6 6 q 7 6 P.P.P.P.P.P.P.P.P.P.P.P.P.P.P.P.",
"P.P.P.P.P.P.P.P.P.P.P.P.P.P.P.6 6 6 7 : ' $.u 8 +.{ = 9 7 9 6 6 q q q q q q q 7 6 q 6 6 6 6 P.P.P.P.P.P.P.P.P.P.P.P.P.P.",
"P.P.P.P.P.P.P.P.P.P.P.P.P.P.P.6 6 q 7 9 [ *.u 8 &.X.N u 9 9 q 6 7 7 7 6 7 q 7 q q q 7 6 7 7 P.P.P.P.P.P.P.P.P.P.P.P.P.P.",
"P.P.P.P.P.P.P.P.P.P.P.P.P.P.P.P.P.7 9 @ ] *.8 9 %.&.=.^ * 8 6 q q q q q 6 7 q q q 6 q q 6 6 P.P.P.P.P.P.P.P.P.P.P.P.P.P.",
"P.P.P.P.P.P.P.P.P.P.P.P.P.P.P.P.P.: N R X.&.^ Q $.&.=.^ * 8 7 7 8 8 7 7 7 q 7 q 6 q 7 q 6 6 P.P.P.P.P.P.P.P.P.P.P.P.P.P.",
"P.P.P.P.P.P.P.P.P.P.P.P.P.P.P.P.P.= / ;.&.&.=.*.&.&.=.~ = 8 7 % = = % 7 7 q 6 q q 7 6 q 6 7 P.P.P.P.P.P.P.P.P.P.P.P.P.P.",
"P.P.P.P.P.P.P.P.P.P.P.P.P.P.P.P.P.* Q *.&.&.&.&.&.&.=.~ = 7 q E _ _ E 7 6 6 6 q q q 6 q 6 6 P.P.P.P.P.P.P.P.P.P.P.P.P.P.",
"P.P.P.P.P.P.P.P.P.P.P.P.P.P.P.P.P.= ~ =.&.&.&.&.&.&.=.~ = 7 7 X.=.=.O.6 q 7 7 q q q 6 q 7 6 P.P.P.P.P.P.P.P.P.P.P.P.P.P.",
"P.P.P.P.P.P.P.P.P.P.P.P.P.P.P.P.P.= Q -.V , < e #.&.=.~ & R X.%.&.*...8 q 6 7 q q q 6 q 6 6 P.P.P.P.P.P.P.P.P.P.P.P.P.P.",
"P.P.P.P.P.P.P.P.P.P.P.P.P.P.P.P.P.6 ~ -.b     X +.&.=.^ @ ' -.&.&.$.} 8 q 7 6 q q 7 6 q 6 7 P.P.P.P.P.P.P.P.P.P.P.P.P.P.",
"P.P.P.P.P.P.P.P.P.P.P.P.P.P.P.- m $.$.&.#.@.+.@.&.&.=.~ # _ *.*.$.u 8 6 6 q 6 q 7 q 6 q 7 7 P.P.P.P.P.P.P.P.P.P.P.P.P.P.",
"P.P.P.P.P.P.P.P.P.P.P.P.P.P.P.* P *.&.$.&.*.&.*.&.&.*.' t [ *.O.} 8 9 7 7 q 6 q 7 6 q q 6 6 P.P.P.P.P.P.P.P.P.P.P.P.P.P.",
"P.P.P.P.P.P.P.P.P.P.P.P.P.P.P.* U =.=.=.*.&.&.&.&.&.&.&.$.*.=.N 9 7 6 q 6 7 7 6 q q 7 6 6 9 P.P.P.P.P.P.P.P.P.P.P.P.P.P.",
"P.P.P.P.P.P.P.P.P.P.P.P.P.P.P.9 s ) ) ) o.*.&.&.&.&.&.&.*. .` f : 7 7 6 7 6 q 7 7 q 6 6 q P.P.P.P.P.P.P.P.P.P.P.P.P.P.P.",
"P.P.P.P.P.P.P.P.P.P.P.P.P.P.P.w o       ) =.&.&.*.&.&.&.*.T @ 7 7 q 7 q q 6 q q 6 6 q 6 P.P.P.P.P.P.P.P.P.P.P.P.P.P.P.P.",
"P.P.P.P.P.P.P.P.P.P.P.P.P.P.P.P.> . r Y | &.&.&.&.&.&.&.*.R % q 6 q q q q q 7 6 q P.q q P.P.P.P.P.P.P.P.P.P.P.P.P.P.P.P.",
"P.P.P.P.P.P.P.P.P.P.P.P.P.P.P.P.P.- _ :.*.*.*.*.*.*.*.&.*.T = q 6 q 6 6 q 6 6 6 P.P.6 6 P.P.P.P.P.P.P.P.P.P.P.P.P.P.P.P.",
"P.P.P.P.P.P.P.P.P.P.P.P.P.P.P.P.P.P.M I I U m I m U B [ =...[ f 9 q q P.6 q 6 P.P.P.P.P.P.P.P.P.P.P.P.P.P.P.P.P.P.P.P.P.",
"P.P.P.P.P.P.P.P.P.P.P.P.P.P.P.P.P.P.P.- - - - - - : @ R =.&.*.N : q 6 P.P.6 P.P.P.P.P.P.P.P.P.P.P.P.P.P.P.P.P.P.P.P.P.P.",
"P.P.P.P.P.P.P.P.P.P.P.P.P.P.P.P.P.P.P.P.P.P.P.P.P.P.- ~ =.&.&.M % P.P.P.P.P.P.P.P.P.P.P.P.P.P.P.P.P.P.P.P.P.P.P.P.P.P.P.",
"P.P.P.P.P.P.P.P.P.P.P.P.P.P.P.P.P.P.P.P.P.P.P.P.P.P.= R &.+.#.d % P.P.P.P.P.P.P.P.P.P.P.P.P.P.P.P.P.P.P.P.P.P.P.P.P.P.P.",
"P.P.P.P.P.P.P.P.P.P.P.P.P.P.P.P.P.P.P.P.P.P.P.P.P.P.q 7 y 4 4 6 6 P.P.P.P.P.P.P.P.P.P.P.P.P.P.P.P.P.P.P.P.P.P.P.P.P.P.P.",
"P.P.P.P.P.P.P.P.P.P.P.P.P.P.P.P.P.P.P.P.P.P.P.P.P.P.w w 9 c F j 6 P.P.P.P.P.P.P.P.P.P.P.P.P.P.P.P.P.P.P.P.P.P.P.P.P.P.P.",
"P.P.P.P.P.P.P.P.P.P.P.P.P.P.P.P.P.P.P.P.P.P.P.P.3 2 2 3 1 5.G.A 3 3 2 P.P.P.P.P.P.P.P.P.P.P.P.P.P.P.P.P.P.P.P.P.P.P.P.P.",
"P.P.P.P.P.P.P.P.P.P.P.P.P.P.P.P.P.P.P.P.P.P.P.w >.,.,.,.J l.V.C 6 >.K 6 P.P.P.P.P.P.P.P.P.P.P.P.P.P.P.P.P.P.P.P.P.P.P.P.",
"P.P.P.P.P.P.P.P.P.P.P.P.P.P.P.P.P.P.P.P.P.P.6 z Z.H.F.F.G.D.V.C q A.b.6 7 P.P.P.P.P.P.P.P.P.P.P.P.P.P.P.P.P.P.P.P.P.P.P.",
"P.P.P.P.P.P.P.P.P.P.P.P.P.P.P.P.P.P.P.P.P.P.6 h f.g.g.0.F l.S.C 6 g.q.7 7 P.P.P.P.P.P.P.P.P.P.P.P.P.P.P.P.P.P.P.P.P.P.P.",
"P.P.P.P.P.P.P.P.P.P.P.P.P.P.P.P.P.P.P.P.P.P.6 l p.u.u.9.O 5.D.C 5 u.t.7 6 P.P.P.P.P.P.P.P.P.P.P.P.P.P.P.P.P.P.P.P.P.P.P.",
"P.P.P.P.P.P.P.P.P.P.P.P.P.P.P.P.P.P.P.P.6 w k.c.K.K.L.1.+ 5.D.A q K.7.6 6 P.P.P.P.P.P.P.P.P.P.P.P.P.P.P.P.P.P.P.P.P.P.P.",
"P.P.P.P.P.P.P.P.P.P.P.P.P.P.P.P.P.P.P.P.6 w n.C.B.B.S.2.1 5.S.v q B.z.q 6 P.P.P.P.P.P.P.P.P.P.P.P.P.P.P.P.P.P.P.P.P.P.P.",
"P.P.P.P.P.P.P.P.P.P.P.P.P.P.P.P.P.P.P.P.6 0 r.u.p.p.i.8.+ g k > h p.w.6 6 P.P.P.P.P.P.P.P.P.P.P.P.P.P.P.P.P.P.P.P.P.P.P.",
"P.P.P.P.P.P.P.P.P.P.P.P.P.P.P.P.P.P.P.P.6 q e.s.s.y.r.( n d a 8 h a.e.6 6 P.P.P.P.P.P.P.P.P.P.P.P.P.P.P.P.P.P.P.P.P.P.P.",
"P.P.P.P.P.P.P.P.P.P.P.P.P.P.P.P.P.P.P.P.6 9 b.V.V.l.= Q =.&.&.d g B.x.7 6 P.P.P.P.P.P.P.P.P.P.P.P.P.P.P.P.P.P.P.P.P.P.P.",
"P.P.P.P.P.P.P.P.P.P.P.P.P.P.P.P.P.P.P.P.6 w c.V.S.j.= Q =.$.&.d k N.x.7 6 P.P.P.P.P.P.P.P.P.P.P.P.P.P.P.P.P.P.P.P.P.P.P.",
"P.P.P.P.P.P.P.P.P.P.P.P.P.P.P.P.P.P.P.P.6 j b.G.S.j.O ! ;.*.=.p % N.x.7 6 P.P.P.P.P.P.P.P.P.P.P.P.P.P.P.P.P.P.P.P.P.P.P.",
"P.P.P.P.P.P.P.P.P.P.P.P.P.P.P.P.P.P.P.P.P.w J 3.V.v.<.G ! Q ~ L 3.V.x.9 6 P.P.P.P.P.P.P.P.P.P.P.P.P.P.P.P.P.P.P.P.P.P.P.",
"P.P.P.P.P.P.P.P.P.P.P.P.P.P.P.P.P.P.P.P.P.P.1 6 N.S.J.<.O $ ; x.F.S.x.q 6 P.P.P.P.P.P.P.P.P.P.P.P.P.P.P.P.P.P.P.P.P.P.P.",
"P.P.P.P.P.P.P.P.P.P.P.P.P.P.P.P.P.P.P.P.P.P.P.P.S 2.V.c.h.j.j.M.N.H S P.P.P.P.P.P.P.P.P.P.P.P.P.P.P.P.P.P.P.P.P.P.P.P.P.",
"P.P.P.P.P.P.P.P.P.P.P.P.P.P.P.P.P.P.P.P.P.P.P.P.1 Z N.N.V.V.V.N.b.q 2 P.P.P.P.P.P.P.P.P.P.P.P.P.P.P.P.P.P.P.P.P.P.P.P.P.",
"P.P.P.P.P.P.P.P.P.P.P.P.P.P.P.P.P.P.P.P.P.P.P.P.6 q x x z z z z x q q P.P.P.P.P.P.P.P.P.P.P.P.P.P.P.P.P.P.P.P.P.P.P.P.P.",
"P.P.P.P.P.P.P.P.P.P.P.P.P.P.P.P.P.P.P.P.P.P.P.P.6 6 6 6 6 6 6 6 6 6 6 P.P.P.P.P.P.P.P.P.P.P.P.P.P.P.P.P.P.P.P.P.P.P.P.P.",
"P.P.P.P.P.P.P.P.P.P.P.P.P.P.P.P.P.P.P.P.P.P.P.P.P.P.q q q q q q q P.P.P.P.P.P.P.P.P.P.P.P.P.P.P.P.P.P.P.P.P.P.P.P.P.P.P.",
"P.P.P.P.P.P.P.P.P.P.P.P.P.P.P.P.P.P.P.P.P.P.P.P.P.P.6 6 q q q q q P.P.P.P.P.P.P.P.P.P.P.P.P.P.P.P.P.P.P.P.P.P.P.P.P.P.P.",
"P.P.P.P.P.P.P.P.P.P.P.P.P.P.P.P.P.P.P.P.P.P.P.P.6 6 q 6 q q w q 6 P.P.P.P.P.P.P.P.P.P.P.P.P.P.P.P.P.P.P.P.P.P.P.P.P.P.P.",
"P.P.P.P.P.P.P.P.P.P.P.P.P.P.P.P.P.P.P.P.P.P.P.P.P.6 P.P.P.P.P.q P.P.P.P.P.P.P.P.P.P.P.P.P.P.P.P.P.P.P.P.P.P.P.P.P.P.P.P.",
"P.P.P.P.P.P.P.P.P.P.P.P.P.P.P.P.P.P.P.P.P.P.P.P.P.P.P.P.P.P.P.P.P.P.P.P.P.P.P.P.P.P.P.P.P.P.P.P.P.P.P.P.P.P.P.P.P.P.P.P.",
"P.P.P.P.P.P.P.P.P.P.P.P.P.P.P.P.P.P.P.P.P.P.P.P.P.P.P.P.P.P.P.P.P.P.P.P.P.P.P.P.P.P.P.P.P.P.P.P.P.P.P.P.P.P.P.P.P.P.P.P.",
"P.P.P.P.P.P.P.P.P.P.P.P.P.P.P.P.P.P.P.P.P.P.P.P.P.P.P.P.P.P.P.P.P.P.P.P.P.P.P.P.P.P.P.P.P.P.P.P.P.P.P.P.P.P.P.P.P.P.P.P.",
"P.P.P.P.P.P.P.P.P.P.P.P.P.P.P.P.P.P.P.P.P.P.P.P.P.P.P.P.P.P.P.P.P.P.P.P.P.P.P.P.P.P.P.P.P.P.P.P.P.P.P.P.P.P.P.P.P.P.P.P."
};
