/* XPM */
static char *result[] = {
/* columns rows colors chars-per-pixel */
"60 60 157 2 ",
"   c #010100",
".  c #1D050B",
"X  c #161200",
"o  c #2A0B0E",
"O  c #330102",
"+  c #3F0300",
"@  c #310F06",
"#  c #2E0019",
"$  c #25001A",
"%  c #3D0D16",
"&  c #340419",
"*  c #3B0B18",
"=  c #370614",
"-  c #3C1214",
";  c #3F1018",
":  c #292200",
">  c #342C00",
",  c #410500",
"<  c #420B04",
"1  c #430F0A",
"2  c #4F1C0C",
"3  c #4E0F1A",
"4  c #461717",
"5  c #471817",
"6  c #4A1B16",
"7  c #451618",
"8  c #49161B",
"9  c #471818",
"0  c #491A1B",
"q  c #423700",
"w  c #543D06",
"e  c #522315",
"r  c #5E2F14",
"t  c #5F3114",
"y  c #6D3800",
"u  c #6B3C0F",
"i  c #623A0F",
"p  c #623414",
"a  c #6B3B13",
"s  c #421624",
"d  c #421A28",
"f  c #4B1924",
"g  c #521526",
"h  c #482126",
"j  c #4A242B",
"k  c #4A2B3B",
"l  c #4E313F",
"z  c #624006",
"x  c #615101",
"c  c #7F530F",
"v  c #6E4111",
"b  c #724512",
"n  c #794C10",
"m  c #7E6901",
"M  c #4E3444",
"N  c #503546",
"B  c #523E53",
"V  c #503F5B",
"C  c #4E4B5E",
"Z  c #7C6B50",
"A  c #564A67",
"S  c #5A587D",
"D  c #5B577E",
"F  c #6B656D",
"G  c #83560F",
"H  c #815510",
"J  c #875910",
"K  c #816D00",
"L  c #9F6F03",
"P  c #96690E",
"I  c #9B6F0E",
"U  c #92660D",
"Y  c #8F7800",
"T  c #9E720D",
"R  c #A1740D",
"E  c #A67A0B",
"W  c #A97D0B",
"Q  c #A57605",
"!  c #A61C77",
"~  c #9E8400",
"^  c #AE800C",
"/  c #B1850A",
"(  c #B98D09",
")  c #BB9009",
"_  c #C79D08",
"`  c #CBA901",
"'  c #D4A906",
"]  c #D8AD06",
"[  c #DDB405",
"{  c #E6BC05",
"}  c #EEC702",
"|  c #EFC901",
" . c #F4CB03",
".. c #F8CF02",
"X. c #F0C503",
"o. c #FDD302",
"O. c #FFDC01",
"+. c #FFE201",
"@. c #FFEA00",
"#. c #FFF101",
"$. c #FFFD00",
"%. c #5C5B83",
"&. c #5E5E88",
"*. c #585F93",
"=. c #6B5B97",
"-. c #5F658E",
";. c #5D6594",
":. c #596398",
">. c #60618F",
",. c #616997",
"<. c #AB038F",
"1. c #A40C97",
"2. c #934ABC",
"3. c #B23CD9",
"4. c #DC06D6",
"5. c #CC1DD9",
"6. c #E203DC",
"7. c #E900DB",
"8. c #DF1FF5",
"9. c #E018EF",
"0. c #FD00F4",
"q. c #FE02FE",
"w. c #FF08FF",
"e. c #F604F9",
"r. c #E91FFF",
"t. c #E320FE",
"y. c #807EDB",
"u. c #BE40ED",
"i. c #C642FA",
"p. c #6880B4",
"a. c #6983BC",
"s. c #6381B6",
"d. c #6B89C5",
"f. c #698ED5",
"g. c #748FDE",
"h. c #6C92D6",
"j. c #6D95DB",
"k. c #6E98DD",
"l. c #6F9BE3",
"z. c #69A7E8",
"x. c #73A5F5",
"c. c #76A6FC",
"v. c #74ACFD",
"b. c #7FACFF",
"n. c #73A9F5",
"m. c #6DB7FF",
"M. c #6EBEFF",
"N. c #76B1FF",
"B. c #79B3FF",
"V. c #74BFFF",
"C. c #79BBFF",
"Z. c #70C3FF",
"A. c #7BC1FF",
"S. c #888CF7",
"D. c #898DFB",
"F. c #8F97FF",
"G. c None",
/* pixels */
"G.G.G.G.G.G.G.G.G.G.G.G.G.G.G.G.G.G.G.G.G.G.G.G.G.G.G.G.G.G.G.G.G.G.G.G.G.G.G.G.G.G.G.G.G.G.G.G.G.G.G.G.G.G.G.G.G.G.G.G.",
"G.G.G.G.G.G.G.G.G.G.G.G.G.G.G.G.G.G.G.G.G.G.G.G.G.G.G.G.G.G.G.G.G.G.G.G.G.G.G.G.G.G.G.G.G.G.G.G.G.G.G.G.G.G.G.G.G.G.G.G.",
"G.G.G.G.G.G.G.G.G.G.G.G.G.G.G.G.G.G.G.G.G.G.G.G.G.G.G.G.G.G.G.G.G.G.G.G.G.G.G.G.G.G.G.G.G.G.G.G.G.G.G.G.G.G.G.G.G.G.G.G.",
"G.G.G.G.G.G.G.G.G.G.G.G.G.G.G.G.G.G.G.G.G.G.5 7 5 5 5 5 5 5 5 5 7 5 7 7 6 5 G.G.G.G.G.G.G.G.G.G.G.G.G.G.G.G.G.G.G.G.G.G.",
"G.G.G.G.G.G.G.G.G.G.G.G.G.G.G.G.G.G.G.G.G.5 5 5 7 6 7 6 5 5 7 7 7 5 5 6 5 5 G.G.G.G.G.G.G.G.G.G.G.G.G.G.G.G.G.G.G.G.G.G.",
"G.G.G.G.G.G.G.G.G.G.G.G.G.G.G.G.G.G.G.G.5 5 5 7 7 5 7 7 5 8 7 7 6 7 7 7 5 5 5 7 5 G.G.G.G.G.G.G.G.G.G.G.G.G.G.G.G.G.G.G.",
"G.G.G.G.G.G.G.G.G.G.G.G.G.G.G.G.G.G.G.5 5 5 5 5 6 7 6 7 5 5 7 7 7 5 7 7 4 4 5 7 5 5 G.G.G.G.G.G.G.G.G.G.G.G.G.G.G.G.G.G.",
"G.G.G.G.G.G.G.G.G.G.G.G.G.G.G.G.G.G.4 5 5 5 5 7 0 7 7 7 7 0 7 6 0 7 6 5 7 7 7 4 7 5 4 G.G.G.G.G.G.G.G.G.G.G.G.G.G.G.G.G.",
"G.G.G.G.G.G.G.G.G.G.G.G.G.G.G.G.4 5 7 7 7 7 7 7 5 5 7 0 5 7 5 7 5 5 5 5 5 4 5 5 7 5 5 5 5 G.G.G.G.G.G.G.G.G.G.G.G.G.G.G.",
"G.G.G.G.G.G.G.G.G.G.G.G.G.G.G.G.4 7 6 6 7 6 7 0 0 7 5 5 5 5 7 6 7 7 7 5 7 7 5 5 5 5 5 5 4 G.G.G.G.G.G.G.G.G.G.G.G.G.G.G.",
"G.G.G.G.G.G.G.G.G.G.G.G.G.G.G.G.4 4 7 7 6 7 7 6 5 0 5 0 5 7 5 7 5 4 4 4 5 5 4 4 7 5 5 5 4 G.G.G.G.G.G.G.G.G.G.G.G.G.G.G.",
"G.G.G.G.G.G.G.G.G.G.G.G.G.G.G.G.4 5 6 5 7 7 7 6 5 7 5 7 7 5 6 7 5 4 e e 5 5 e 6 7 5 5 5 5 G.G.G.G.G.G.G.G.G.G.G.G.G.G.G.",
"G.G.G.G.G.G.G.G.G.G.G.G.G.G.4 4 7 4 7 5 7 7 6 7 6 7 7 7 5 7 5 0 4 * _  .6 r o./ * 0 4 5 4 G.G.G.G.G.G.G.G.G.G.G.G.G.G.G.",
"G.G.G.G.G.G.G.G.G.G.G.G.G.G.4 4 5 4 7 7 6 7 0 7 7 7 6 6 5 7 5 4 r b [ o.e p O.) * 6 4 4 4 G.G.G.G.G.G.G.G.G.G.G.G.G.G.G.",
"G.G.G.G.G.G.G.G.G.G.G.G.G.G.4 4 6 7 5 7 6 7 6 7 7 6 7 7 7 5 6 * E +.o. .; e O./ $ 7 6 G.G.G.G.G.G.G.G.G.G.G.G.G.G.G.G.G.",
"G.G.G.G.G.G.G.G.G.G.G.G.G.G.4 4 7 7 6 5 7 6 7 7 7 6 6 6 6 5 5 * E +.o...T E o.] I b ; G.G.G.G.G.G.G.G.G.G.G.G.G.G.G.G.G.",
"G.G.G.G.G.G.G.G.G.G.G.G.G.G.5 4 7 7 6 7 7 7 7 6 7 * * * * 4 6 * W +.o.o.O.O.o.o.#.E * G.G.G.G.G.G.G.G.G.G.G.G.G.G.G.G.G.",
"G.G.G.G.G.G.G.G.G.G.G.G.G.G.4 4 6 7 6 7 6 7 6 7 6 P E ^ U 7 4 * E +.o.o.o.o.o.o.+.T * G.G.G.G.G.G.G.G.G.G.G.G.G.G.G.G.G.",
"G.G.G.G.G.G.G.G.G.G.G.G.G.G.4 4 7 7 7 6 6 7 4 7 6 } +.@.[ 5 6 * W +.o.o.o.o.o.o.+.R * G.G.G.G.G.G.G.G.G.G.G.G.G.G.G.G.G.",
"G.G.G.G.G.G.G.G.G.G.G.G.G.G.4 4 6 7 6 7 7 6 7 7 6 [ O...X.[ P $ W +.o. .q > : m @.T & G.G.G.G.G.G.G.G.G.G.G.G.G.G.G.G.G.",
"G.G.G.G.G.G.G.G.G.G.G.G.G.G.4 4 0 7 6 7 6 7 6 7 6 ' ....o.@./ # ^ +.o.} X     x @.E 4 G.G.G.G.G.G.G.G.G.G.G.G.G.G.G.G.G.",
"G.G.G.G.G.G.G.G.G.G.G.G.G.G.4 5 7 7 7 6 7 7 7 7 5 6 r ..O.O.E $ W +.o.o.| } } ..o.....c * G.G.G.G.G.G.G.G.G.G.G.G.G.G.G.",
"G.G.G.G.G.G.G.G.G.G.G.G.G.G.5 5 6 7 7 7 7 7 7 6 5 7 e ' { O.( e ) +.o.o.O.O.o.o.o.o.O.c * G.G.G.G.G.G.G.G.G.G.G.G.G.G.G.",
"G.G.G.G.G.G.G.G.G.G.G.G.G.G.4 5 7 7 6 7 6 7 6 7 4 4 5 ; b O.O...o.o.o.o.o.o.o.O.+.O.@.J * G.G.G.G.G.G.G.G.G.G.G.G.G.G.G.",
"G.G.G.G.G.G.G.G.G.G.G.G.G.G.G.7 5 5 7 5 7 7 7 6 4 5 6 ; t ^ ] O.o.o.o.o.o.o.O.[ ~ ~ ~ i 7 G.G.G.G.G.G.G.G.G.G.G.G.G.G.G.",
"G.G.G.G.G.G.G.G.G.G.G.G.G.G.G.G.5 7 7 5 7 6 7 7 5 4 7 5 5 & P +.o.o.o.o.o.o.+.Y       o 5 G.G.G.G.G.G.G.G.G.G.G.G.G.G.G.",
"G.G.G.G.G.G.G.G.G.G.G.G.G.G.G.G.7 5 G.5 6 7 6 7 5 7 7 5 6 * T +.o.o.o.o.o.o.O.` K w . - G.G.G.G.G.G.G.G.G.G.G.G.G.G.G.G.",
"G.G.G.G.G.G.G.G.G.G.G.G.G.G.G.G.4 5 G.G.5 5 7 7 4 4 5 5 5 & P +.o.O.O.O.O.O.O.O.$.W * G.G.G.G.G.G.G.G.G.G.G.G.G.G.G.G.G.",
"G.G.G.G.G.G.G.G.G.G.G.G.G.G.G.G.G.G.G.G.G.7 7 6 G.7 7 ; p ) [ O.( n J G H H H H H v G.G.G.G.G.G.G.G.G.G.G.G.G.G.G.G.G.G.",
"G.G.G.G.G.G.G.G.G.G.G.G.G.G.G.G.G.G.G.G.G.G.7 G.G.7 6 ; b O.O.O.P # % * * * * * * G.G.G.G.G.G.G.G.G.G.G.G.G.G.G.G.G.G.G.",
"G.G.G.G.G.G.G.G.G.G.G.G.G.G.G.G.G.G.G.G.G.G.G.G.G.G.G.; v o.o.+.T * G.G.G.G.G.G.G.G.G.G.G.G.G.G.G.G.G.G.G.G.G.G.G.G.G.G.",
"G.G.G.G.G.G.G.G.G.G.G.G.G.G.G.G.G.G.G.G.G.G.G.G.G.G.G.; a X.} o.P * G.G.G.G.G.G.G.G.G.G.G.G.G.G.G.G.G.G.G.G.G.G.G.G.G.G.",
"G.G.G.G.G.G.G.G.G.G.G.G.G.G.G.G.G.G.G.G.G.G.G.G.G.G.G.4 5 2 2 e 6 7 G.G.G.G.G.G.G.G.G.G.G.G.G.G.G.G.G.G.G.G.G.G.G.G.G.G.",
"G.G.G.G.G.G.G.G.G.G.G.G.G.G.G.G.G.G.G.G.G.G.G.G.G.G.G.4 d V k 4 7 7 G.G.G.G.G.G.G.G.G.G.G.G.G.G.G.G.G.G.G.G.G.G.G.G.G.G.",
"G.G.G.G.G.G.G.G.G.G.G.G.G.G.G.G.G.G.G.G.G.G.G.G.G.< 1 1 M C.-.+ 1 1 1 1 G.G.G.G.G.G.G.G.G.G.G.G.G.G.G.G.G.G.G.G.G.G.G.G.",
"G.G.G.G.G.G.G.G.G.G.G.G.G.G.G.G.G.G.G.G.G.G.G.G.4 D %.4 M N.d.S &.&.&.D 0 G.G.G.G.G.G.G.G.G.G.G.G.G.G.G.G.G.G.G.G.G.G.G.",
"G.G.G.G.G.G.G.G.G.G.G.G.G.G.G.G.G.G.G.G.G.G.G.4 7 z.m.7 M v.N.A.V.M.Z.m.h 4 G.G.G.G.G.G.G.G.G.G.G.G.G.G.G.G.G.G.G.G.G.G.",
"G.G.G.G.G.G.G.G.G.G.G.G.G.G.G.G.G.G.G.G.G.G.G.4 0 3.i.8 M N.d.C 2.i.i.u.f 1 G.G.G.G.G.G.G.G.G.G.G.G.G.G.G.G.G.G.G.G.G.G.",
"G.G.G.G.G.G.G.G.G.G.G.G.G.G.G.G.G.G.G.G.G.G.G.4 8 7.0.3 M N.-.O <.q.q.0.g 4 G.G.G.G.G.G.G.G.G.G.G.G.G.G.G.G.G.G.G.G.G.G.",
"G.G.G.G.G.G.G.G.G.G.G.G.G.G.G.G.G.G.G.G.G.G.G.4 0 y.D.5 M C.;.+ =.F.D.D.j.s.7 G.G.G.G.G.G.G.G.G.G.G.G.G.G.G.G.G.G.G.G.G.",
"G.G.G.G.G.G.G.G.G.G.G.G.G.G.G.G.G.G.G.G.G.G.G.4 0 j.x.8 M v.-.+ ,.B.c.c.b.g.0 5 G.G.G.G.G.G.G.G.G.G.G.G.G.G.G.G.G.G.G.G.",
"G.G.G.G.G.G.G.G.G.G.G.G.G.G.G.G.G.G.G.G.G.G.G.4 8 6.e.8 4 d s @ 1.w.e.q.q.4.0 - G.G.G.G.G.G.G.G.G.G.G.G.G.G.G.G.G.G.G.G.",
"G.G.G.G.G.G.G.G.G.G.G.G.G.G.G.G.G.G.G.G.G.G.G.4 8 5.8.f 6 u a z ! 6.9.r.t.5.0 4 G.G.G.G.G.G.G.G.G.G.G.G.G.G.G.G.G.G.G.G.",
"G.G.G.G.G.G.G.G.G.G.G.G.G.G.G.G.G.G.G.G.G.G.G.4 8 j.n.s v ....O.I * d.B.v.h.7 4 G.G.G.G.G.G.G.G.G.G.G.G.G.G.G.G.G.G.G.G.",
"G.G.G.G.G.G.G.G.G.G.G.G.G.G.G.G.G.G.G.G.G.G.G.4 7 k.n.d v o...+.I * d.v.v.h.0 4 G.G.G.G.G.G.G.G.G.G.G.G.G.G.G.G.G.G.G.G.",
"G.G.G.G.G.G.G.G.G.G.G.G.G.G.G.G.G.G.G.G.G.G.G.4 0 k.n.= y +.+.#.L O a.N.C.l.0 4 G.G.G.G.G.G.G.G.G.G.G.G.G.G.G.G.G.G.G.G.",
"G.G.G.G.G.G.G.G.G.G.G.G.G.G.G.G.G.G.G.G.G.G.G.4 7 j.v.;.F T T E Z :.l.v.;.S 0 G.G.G.G.G.G.G.G.G.G.G.G.G.G.G.G.G.G.G.G.G.",
"G.G.G.G.G.G.G.G.G.G.G.G.G.G.G.G.G.G.G.G.G.G.G.4 0 k.N.C.f.= * = :.A.v.n.5 < G.G.G.G.G.G.G.G.G.G.G.G.G.G.G.G.G.G.G.G.G.G.",
"G.G.G.G.G.G.G.G.G.G.G.G.G.G.G.G.G.G.G.G.G.G.G.G.G.B A n.x.a.a.,.j.v.-.B G.G.G.G.G.G.G.G.G.G.G.G.G.G.G.G.G.G.G.G.G.G.G.G.",
"G.G.G.G.G.G.G.G.G.G.G.G.G.G.G.G.G.G.G.G.G.G.G.G.G.1 7 l.n.c.v.v.n.x.M + G.G.G.G.G.G.G.G.G.G.G.G.G.G.G.G.G.G.G.G.G.G.G.G.",
"G.G.G.G.G.G.G.G.G.G.G.G.G.G.G.G.G.G.G.G.G.G.G.G.G.5 5 j j h j j j j f 4 G.G.G.G.G.G.G.G.G.G.G.G.G.G.G.G.G.G.G.G.G.G.G.G.",
"G.G.G.G.G.G.G.G.G.G.G.G.G.G.G.G.G.G.G.G.G.G.G.G.G.5 5 4 4 4 4 1 4 1 4 4 G.G.G.G.G.G.G.G.G.G.G.G.G.G.G.G.G.G.G.G.G.G.G.G.",
"G.G.G.G.G.G.G.G.G.G.G.G.G.G.G.G.G.G.G.G.G.G.G.G.G.G.G.5 5 0 4 0 7 7 G.G.G.G.G.G.G.G.G.G.G.G.G.G.G.G.G.G.G.G.G.G.G.G.G.G.",
"G.G.G.G.G.G.G.G.G.G.G.G.G.G.G.G.G.G.G.G.G.G.G.G.G.G.G.5 4 5 4 4 0 4 G.G.G.G.G.G.G.G.G.G.G.G.G.G.G.G.G.G.G.G.G.G.G.G.G.G.",
"G.G.G.G.G.G.G.G.G.G.G.G.G.G.G.G.G.G.G.G.G.G.G.G.G.G.G.5 5 5 7 0 5 4 5 5 G.G.G.G.G.G.G.G.G.G.G.G.G.G.G.G.G.G.G.G.G.G.G.G.",
"G.G.G.G.G.G.G.G.G.G.G.G.G.G.G.G.G.G.G.G.G.G.G.G.G.G.G.G.5 G.G.G.G.G.4 G.G.G.G.G.G.G.G.G.G.G.G.G.G.G.G.G.G.G.G.G.G.G.G.G.",
"G.G.G.G.G.G.G.G.G.G.G.G.G.G.G.G.G.G.G.G.G.G.G.G.G.G.G.G.G.G.G.G.G.G.G.G.G.G.G.G.G.G.G.G.G.G.G.G.G.G.G.G.G.G.G.G.G.G.G.G.",
"G.G.G.G.G.G.G.G.G.G.G.G.G.G.G.G.G.G.G.G.G.G.G.G.G.G.G.G.G.G.G.G.G.G.G.G.G.G.G.G.G.G.G.G.G.G.G.G.G.G.G.G.G.G.G.G.G.G.G.G.",
"G.G.G.G.G.G.G.G.G.G.G.G.G.G.G.G.G.G.G.G.G.G.G.G.G.G.G.G.G.G.G.G.G.G.G.G.G.G.G.G.G.G.G.G.G.G.G.G.G.G.G.G.G.G.G.G.G.G.G.G.",
"G.G.G.G.G.G.G.G.G.G.G.G.G.G.G.G.G.G.G.G.G.G.G.G.G.G.G.G.G.G.G.G.G.G.G.G.G.G.G.G.G.G.G.G.G.G.G.G.G.G.G.G.G.G.G.G.G.G.G.G."
};
