/* XPM */
static char *result[] = {
/* columns rows colors chars-per-pixel */
"60 60 101 2 ",
"   c #3F0100",
".  c #3F0F17",
"X  c #360719",
"o  c #370819",
"O  c #390A1D",
"+  c #3F1414",
"@  c #3F1119",
"#  c #3D1526",
"$  c #410500",
"%  c #420B05",
"&  c #4B060C",
"*  c #430E09",
"=  c #45110C",
"-  c #481308",
";  c #461717",
":  c #471817",
">  c #4D1E16",
",  c #441518",
"<  c #48171B",
"1  c #471818",
"2  c #481B1E",
"3  c #4F2015",
"4  c #44201F",
"5  c #5C2E10",
"6  c #6C3E12",
"7  c #491525",
"8  c #461C22",
"9  c #481F24",
"0  c #521524",
"q  c #5E1739",
"w  c #492025",
"e  c #4A232A",
"r  c #4A2C35",
"t  c #4D2E3C",
"y  c #4D303C",
"u  c #6F4112",
"i  c #68194A",
"p  c #4F3444",
"a  c #503847",
"s  c #51374A",
"d  c #513A4D",
"f  c #573652",
"g  c #523C52",
"h  c #504256",
"j  c #54435C",
"k  c #564966",
"l  c #564E6E",
"z  c #584F6F",
"x  c #565372",
"c  c #595272",
"v  c #595679",
"b  c #80520C",
"n  c #86580C",
"m  c #9C6F0D",
"M  c #A1750D",
"N  c #AD810B",
"B  c #C0970C",
"V  c #C49B0B",
"C  c #CCA207",
"Z  c #D1A607",
"A  c #ECC307",
"S  c #FCD302",
"D  c yellow",
"F  c #5B5B82",
"G  c #5D618B",
"H  c #606E9E",
"J  c #667FB9",
"K  c #C406B5",
"L  c #D007C8",
"P  c #F700ED",
"I  c #FE00FE",
"U  c #F20AFA",
"Y  c #D529F4",
"T  c #D829F7",
"R  c #D92CFE",
"E  c #BA47ED",
"W  c #C249FE",
"Q  c #6781BB",
"!  c #6784C0",
"~  c #6885C2",
"^  c #6989C7",
"/  c #6A8BCB",
"(  c #6B8FD0",
")  c #699FE0",
"_  c #729FE3",
"`  c #739FED",
"'  c #6BADEC",
"]  c #70A1EE",
"[  c #6EAAF4",
"{  c #75A7FB",
"}  c #74AAFE",
"|  c #6BB6FE",
" . c #6BB9FF",
".. c #76B3FF",
"X. c #79BCFF",
"o. c #7BC2FF",
"O. c #8588EF",
"+. c #8987F3",
"@. c #8A8FFF",
"#. c #8D91FF",
"$. c None",
/* pixels */
"$.$.$.$.$.$.$.$.$.$.$.$.$.$.$.$.$.$.$.$.$.$.$.$.$.$.$.$.$.$.$.$.$.$.$.$.$.$.$.$.$.$.$.$.$.$.$.$.$.$.$.$.$.$.$.$.$.$.$.$.",
"$.$.$.$.$.$.$.$.$.$.$.$.$.$.$.$.$.$.$.$.$.$.$.$.$.$.$.$.$.$.$.$.$.$.$.$.$.$.$.$.$.$.$.$.$.$.$.$.$.$.$.$.$.$.$.$.$.$.$.$.",
"$.$.$.$.$.$.$.$.$.$.$.$.$.$.$.$.$.$.$.$.$.$.$.$.$.$.$.$.$.$.$.$.$.$.$.$.$.$.$.$.$.$.$.$.$.$.$.$.$.$.$.$.$.$.$.$.$.$.$.$.",
"$.$.$.$.$.$.$.$.$.$.$.$.$.$.$.$.$.$.$.$.$.$.; ; ; ; ; ; : , ; : , ; : ; : ; $.$.$.$.$.$.$.$.$.$.$.$.$.$.$.$.$.$.$.$.$.$.",
"$.$.$.$.$.$.$.$.$.$.$.$.$.$.$.$.$.$.$.$.$.$.: ; : ; ; : : : ; ; : ; ; : ; ; $.$.$.$.$.$.$.$.$.$.$.$.$.$.$.$.$.$.$.$.$.$.",
"$.$.$.$.$.$.$.$.$.$.$.$.$.$.$.$.$.$.$.$.; ; ; : < : : < < : : < : < : < : ; ; ; $.$.$.$.$.$.$.$.$.$.$.$.$.$.$.$.$.$.$.$.",
"$.$.$.$.$.$.$.$.$.$.$.$.$.$.$.$.$.$.$.$.; ; ; : : ; : : , : : : : : ; ; < : ; ; $.$.$.$.$.$.$.$.$.$.$.$.$.$.$.$.$.$.$.$.",
"$.$.$.$.$.$.$.$.$.$.$.$.$.$.$.$.$.$.; ; ; : : ; : ; : : : < : : : < ; : ; : ; : ; $.$.$.$.$.$.$.$.$.$.$.$.$.$.$.$.$.$.$.",
"$.$.$.$.$.$.$.$.$.$.$.$.$.$.$.$.$.$.; ; : : : 1 ; : : : < : < 1 1 1 1 1 1 : : : ; ; $.$.$.$.$.$.$.$.$.$.$.$.$.$.$.$.$.$.",
"$.$.$.$.$.$.$.$.$.$.$.$.$.$.$.$.$.; ; : : : 1 1 : < < : : : 1 1 1 1 1 1 1 : ; 1 ; ; : $.$.$.$.$.$.$.$.$.$.$.$.$.$.$.$.$.",
"$.$.$.$.$.$.$.$.$.$.$.$.$.$.$.; ; ; 1 : : : 1 1 : : : : : 1 1 1 1 1 1 1 : 1 : ; < : : $.$.$.$.$.$.$.$.$.$.$.$.$.$.$.$.$.",
"$.$.$.$.$.$.$.$.$.$.$.$.$.$.$.: 1 ; 1 : : 1 1 1 < : < : : 1 1 1 1 1 1 : 1 1 1 ; : : < $.$.$.$.$.$.$.$.$.$.$.$.$.$.$.$.$.",
"$.$.$.$.$.$.$.$.$.$.$.$.$.$.$.; 1 1 ; ; 1 1 1 1 1 1 1 1 : 1 1 1 1 1 1 1 : < , : : : ; ; ; $.$.$.$.$.$.$.$.$.$.$.$.$.$.$.",
"$.$.$.$.$.$.$.$.$.$.$.$.$.$.$.; : 1 : ; 1 1 1 1 1 1 1 1 < 1 1 1 1 1 1 1 : : : : ; < ; : ; $.$.$.$.$.$.$.$.$.$.$.$.$.$.$.",
"$.$.$.$.$.$.$.$.$.$.$.$.$.$.$.; ; 1 ; 1 1 1 1 1 1 1 1 1 1 1 2 : 1 1 : : < : : : : : : : ; $.$.$.$.$.$.$.$.$.$.$.$.$.$.$.",
"$.$.$.$.$.$.$.$.$.$.$.$.$.$.$.; ; 1 1 1 1 1 1 1 1 1 1 1 1 1 1 : 1 < : < : : < : : : , < : $.$.$.$.$.$.$.$.$.$.$.$.$.$.$.",
"$.$.$.$.$.$.$.$.$.$.$.$.$., ; : ; 1 ; 1 1 1 1 1 1 1 1 1 1 1 1 1 1 1 1 1 1 1 1 1 1 1 1 1 ; $.$.$.$.$.$.$.$.$.$.$.$.$.$.$.",
"$.$.$.$.$.$.$.$.$.$.$.$.$., : < 1 1 1 1 1 1 1 1 1 1 1 1 1 1 1 1 1 1 1 1 1 1 1 1 1 1 1 : : ; $.$.$.$.$.$.$.$.$.$.$.$.$.$.",
"$.$.$.$.$.$.$.$.$.$.$.$.$.: : ; ; ; 1 1 1 1 1 1 1 1 1 1 1 < 1 1 1 1 2 1 1 1 1 1 : : : : ; ; ; $.$.$.$.$.$.$.$.$.$.$.$.$.",
"$.$.$.$.$.$.$.$.$.$.$.$.$.: : : 1 1 1 1 : < 1 1 1 1 1 1 1 > 1 1 1 : : 1 1 1 1 1 1 : : : : : : $.$.$.$.$.$.$.$.$.$.$.$.$.",
"$.$.$.$.$.$.$.$.$.$.$.$.$.; : ; ; 1 1 1 1 1 1 1 1 1 1 1 1 1 1 1 1 1 1 1 < : : : 1 : 1 ; ; 1 ; $.$.$.$.$.$.$.$.$.$.$.$.$.",
"$.$.$.$.$.$.$.$.$.$.$.$.$.: < : ; 1 1 1 1 1 1 1 1 1 1 1 1 1 1 1 1 1 1 1 : : < : 1 1 : 1 ; 1 ; $.$.$.$.$.$.$.$.$.$.$.$.$.",
"$.$.$.$.$.$.$.$.$.$.$.$.$.: : : 1 1 1 1 1 1 1 1 1 1 1 1 1 1 1 1 1 1 < : : : : < 1 1 1 : ; 1 ; $.$.$.$.$.$.$.$.$.$.$.$.$.",
"$.$.$.$.$.$.$.$.$.$.$.$.$., : ; ; 1 1 1 1 1 1 1 ; > 1 1 1 1 1 1 < : : : : < : : 1 1 1 : 1 1 ; $.$.$.$.$.$.$.$.$.$.$.$.$.",
"$.$.$.$.$.$.$.$.$.$.$.$.$.; < : ; ; ; : : : : : ; < 1 1 1 1 1 1 < : : : : : ; < : ; : : : : ; $.$.$.$.$.$.$.$.$.$.$.$.$.",
"$.$.$.$.$.$.$.$.$.$.$.$.$.: : ; < : : : : < : < ; ; 1 1 1 1 1 1 : : : < : < ; : ; ; : : ; < ; $.$.$.$.$.$.$.$.$.$.$.$.$.",
"$.$.$.$.$.$.$.$.$.$.$.$.$.: < : : : : : ; : : : ; ; 1 ; ; ; ; ; : ; : : : ; : : : < : : : < : $.$.$.$.$.$.$.$.$.$.$.$.$.",
"$.$.$.$.$.$.$.$.$.$.$.$.$.; : ; : , , : < ; : : < 1 1 1 ; ; ; > < : ; : : : : < ; : , : , : : $.$.$.$.$.$.$.$.$.$.$.$.$.",
"$.$.$.$.$.$.$.$.$.$.$.$.$.$.; ; , $.: : ; : : : ; < ; ; ; , , ; ; ; : : < : ; : ; : $.: ; $.$.$.$.$.$.$.$.$.$.$.$.$.$.$.",
"$.$.$.$.$.$.$.$.$.$.$.$.$.$.$.; $.$.; : ; : ; , ; ; ; > 3 3 3 ; : : , : , : ; : , $.$.; ; $.$.$.$.$.$.$.$.$.$.$.$.$.$.$.",
"$.$.$.$.$.$.$.$.$.$.$.$.$.$.$.$.$.$.; : $.$.$.$.$.; ; Z S S C , : $.$.$.$.$.$.$.$.$.$.$.$.$.$.$.$.$.$.$.$.$.$.$.$.$.$.$.",
"$.$.$.$.$.$.$.$.$.$.$.$.$.$.$.$.$.$.; ; $.$.$.$.$.< < V A A B < 2 $.$.$.$.$.$.$.$.$.$.$.$.$.$.$.$.$.$.$.$.$.$.$.$.$.$.$.",
"$.$.$.$.$.$.$.$.$.$.$.$.$.$.$.$.$.$.$.$.$.$.: , * * * - = - - * * * $.$.$.$.$.$.$.$.$.$.$.$.$.$.$.$.$.$.$.$.$.$.$.$.$.$.",
"$.$.$.$.$.$.$.$.$.$.$.$.$.$.$.$.$.$.$.$.$.$.; t c l l l l l l l l l g $.$.$.$.$.$.$.$.$.$.$.$.$.$.$.$.$.$.$.$.$.$.$.$.$.",
"$.$.$.$.$.$.$.$.$.$.$.$.$.$.$.$.$.$.% * : ;   z X...} ..........} X.k $ 1 :   * $.$.$.$.$.$.$.$.$.$.$.$.$.$.$.$.$.$.$.$.",
"$.$.$.$.$.$.$.$.$.$.$.$.$.$.$.$.$.= v G : e F J } } } } } { } } } } J F e 1 G v = $.$.$.$.$.$.$.$.$.$.$.$.$.$.$.$.$.$.$.",
"$.$.$.$.$.$.$.$.$.$.$.$.$.$.$.$.: = ^ X.2 y ....} [ | } } | } } } | ....r + X.Q * ; $.$.$.$.$.$.$.$.$.$.$.$.$.$.$.$.$.$.",
"$.$.$.$.$.$.$.$.$.$.$.$.$.$.$.* v / z s + q Y R R R R R R R R R R R R T L K f c / v % $.$.$.$.$.$.$.$.$.$.$.$.$.$.$.$.$.",
"$.$.$.$.$.$.$.$.$.$.$.$.$.$.$.* G o.h % 4 i I I I I I I I I I I I I I I I U & h o.G * $.$.$.$.$.$.$.$.$.$.$.$.$.$.$.$.$.",
"$.$.$.$.$.$.$.$.$.$.$.$.$.$.$.% G X.h : ) [ { { { { } { } } } } } } } } ..] : k o.G * $.$.$.$.$.$.$.$.$.$.$.$.$.$.$.$.$.",
"$.$.$.$.$.$.$.$.$.$.$.$.$.$.$.* v _ s 1 +.@.@.@.@.@.@.@.@.@.#.@.@.@.@.@.#.O.; d ] z * $.$.$.$.$.$.$.$.$.$.$.$.$.$.$.$.$.",
"$.$.$.$.$.$.$.$.$.$.$.$.$.$.$.: @ O + 0 P I I I I I I I I I I I I I I I I P 0 + o , : $.$.$.$.$.$.$.$.$.$.$.$.$.$.$.$.$.",
"$.$.$.$.$.$.$.$.$.$.$.$.$.$.$., 6 m 5 7 E W W W W W W W W W W W W W W W W E 7 5 m 6 , $.$.$.$.$.$.$.$.$.$.$.$.$.$.$.$.$.",
"$.$.$.$.$.$.$.$.$.$.$.$.$.$.$.X N D b # '  .| | | | | | | | | | | | | |  .' # n D N X $.$.$.$.$.$.$.$.$.$.$.$.$.$.$.$.$.",
"$.$.$.$.$.$.$.$.$.$.$.$.$.$.$.@ 6 M 5 8 ] } { } { } } } { } } } } { } } { ] 8 5 M u @ $.$.$.$.$.$.$.$.$.$.$.$.$.$.$.$.$.",
"$.$.$.$.$.$.$.$.$.$.$.$.$.$.$.; , o = 9 ] ..} } } } } } { { } } { } } } ..] w , X . : $.$.$.$.$.$.$.$.$.$.$.$.$.$.$.$.$.",
"$.$.$.$.$.$.$.$.$.$.$.$.$.$.$.$.$.$.; w ] } } } } } { z t p s r H ..{ } } ] 9 = $.$.$.$.$.$.$.$.$.$.$.$.$.$.$.$.$.$.$.$.",
"$.$.$.$.$.$.$.$.$.$.$.$.$.$.$.$.$.$.= w ] } { } } } } p % * ; $ v ..} } } ` 9 ; $.$.$.$.$.$.$.$.$.$.$.$.$.$.$.$.$.$.$.$.",
"$.$.$.$.$.$.$.$.$.$.$.$.$.$.$.$.$.$.; 8 { ............s , $.$.* H X.......} 9 = $.$.$.$.$.$.$.$.$.$.$.$.$.$.$.$.$.$.$.$.",
"$.$.$.$.$.$.$.$.$.$.$.$.$.$.$.$.$.$.; 2 Q ^ ~ Q ~ ~ ~ t = $.$.* l / Q Q / Q 2 ; $.$.$.$.$.$.$.$.$.$.$.$.$.$.$.$.$.$.$.$.",
"$.$.$.$.$.$.$.$.$.$.$.$.$.$.$.$.$.$.; ; ; ; ; ; ; ; ; : ; $.$.; : ; ; ; ; ; : ; $.$.$.$.$.$.$.$.$.$.$.$.$.$.$.$.$.$.$.$.",
"$.$.$.$.$.$.$.$.$.$.$.$.$.$.$.$.$.$.$.; $.; ; 1 : : : < ; $.$.; : : ; ; ; $.; $.$.$.$.$.$.$.$.$.$.$.$.$.$.$.$.$.$.$.$.$.",
"$.$.$.$.$.$.$.$.$.$.$.$.$.$.$.$.$.$.$.$.$.$.; : : : < : ; $.$.; : 1 : ; $.$.$.$.$.$.$.$.$.$.$.$.$.$.$.$.$.$.$.$.$.$.$.$.",
"$.$.$.$.$.$.$.$.$.$.$.$.$.$.$.$.$.$.$.$.; ; ; ; : < : : ; $.$.: : : ; : ; ; ; $.$.$.$.$.$.$.$.$.$.$.$.$.$.$.$.$.$.$.$.$.",
"$.$.$.$.$.$.$.$.$.$.$.$.$.$.$.$.$.$.$.$.; ; : ; ; ; : : ; $.$.; < : ; ; ; ; ; ; $.$.$.$.$.$.$.$.$.$.$.$.$.$.$.$.$.$.$.$.",
"$.$.$.$.$.$.$.$.$.$.$.$.$.$.$.$.$.$.$.$.$.$.$.$.$.$.$.$.$.$.$.$.$.$.$.$.$.$.$.$.$.$.$.$.$.$.$.$.$.$.$.$.$.$.$.$.$.$.$.$.",
"$.$.$.$.$.$.$.$.$.$.$.$.$.$.$.$.$.$.$.$.$.$.$.$.$.$.$.$.$.$.$.$.$.$.$.$.$.$.$.$.$.$.$.$.$.$.$.$.$.$.$.$.$.$.$.$.$.$.$.$.",
"$.$.$.$.$.$.$.$.$.$.$.$.$.$.$.$.$.$.$.$.$.$.$.$.$.$.$.$.$.$.$.$.$.$.$.$.$.$.$.$.$.$.$.$.$.$.$.$.$.$.$.$.$.$.$.$.$.$.$.$.",
"$.$.$.$.$.$.$.$.$.$.$.$.$.$.$.$.$.$.$.$.$.$.$.$.$.$.$.$.$.$.$.$.$.$.$.$.$.$.$.$.$.$.$.$.$.$.$.$.$.$.$.$.$.$.$.$.$.$.$.$.",
"$.$.$.$.$.$.$.$.$.$.$.$.$.$.$.$.$.$.$.$.$.$.$.$.$.$.$.$.$.$.$.$.$.$.$.$.$.$.$.$.$.$.$.$.$.$.$.$.$.$.$.$.$.$.$.$.$.$.$.$."
};
