/* XPM */
static char *_647289501960[] = {
/* columns rows colors chars-per-pixel */
"60 60 96 2 ",
"   c black",
".  c #59555B",
"X  c #868089",
"o  c #8D8790",
"O  c #8C858F",
"+  c #191819",
"@  c #8B858E",
"#  c #847E87",
"$  c #8E8791",
"%  c #2B292C",
"&  c #423F44",
"*  c #080708",
"=  c #88828B",
"-  c #6B666E",
";  c gray3",
":  c #857F88",
">  c #8A848D",
",  c #7C777F",
"<  c #2E2B2F",
"1  c #1A191B",
"2  c #2E2C2F",
"3  c #8C868F",
"4  c #8F8992",
"5  c #434045",
"6  c #040404",
"7  c #010101",
"8  c #2D2B2E",
"9  c #1A191A",
"0  c #1B1A1B",
"q  c #6B666D",
"w  c #090709",
"e  c #2C2A2D",
"r  c #948D97",
"t  c #050405",
"y  c #968F9A",
"u  c #161516",
"i  c #837E86",
"p  c #030203",
"a  c #131213",
"s  c #87818A",
"d  c #908993",
"f  c #706B72",
"g  c #7F7982",
"h  c #6D686F",
"j  c #5A565C",
"k  c #958E98",
"l  c #5F5B61",
"z  c #010001",
"x  c #7E7881",
"c  c #7C767F",
"v  c #040304",
"b  c #1F1D20",
"n  c #968F99",
"m  c #0E0D0E",
"M  c #151416",
"N  c gray9",
"B  c #98919C",
"V  c #171618",
"C  c #6A656D",
"Z  c gray2",
"A  c #060606",
"S  c #070607",
"D  c #6D6770",
"F  c #090809",
"G  c #080809",
"H  c #6A656C",
"J  c #2C2A2E",
"K  c #958F98",
"L  c #736E76",
"P  c #605B62",
"I  c #464347",
"U  c #535055",
"Y  c #837D86",
"T  c #232124",
"R  c #3E3B40",
"E  c #857F87",
"W  c #1D1C1E",
"Q  c #928B95",
"!  c #464248",
"~  c #867F89",
"^  c #5E5960",
"/  c #97919B",
"(  c #2A282B",
")  c #464348",
"_  c #1F1E1F",
"`  c #181718",
"'  c #474449",
"]  c #948C97",
"[  c #131313",
"{  c #8E8891",
"}  c #3C393D",
"|  c #0D0C0D",
" . c #282629",
".. c #968E99",
"X. c #89838C",
"o. c #111011",
/* pixels */
"        + O # # # # # # # # # # # # # # # # # # # # # # # o &       + O # # # # # # # # # # # # # # # # # # # # # # # # ",
"        + O # # # # # # # # # # # # # # # # # # # # # # # o &       + O # # # # # # # # # # # # # # # # # # # # # # # # ",
"        + O # # # # # # # # # # # # # # # # # # # # # # # o &       + O # # # # # # # # # # # # # # # # # # # # # # # # ",
"        u O # # # # # # # # # # # # # # # # # # # # # # # o &       + O # # # # # # # # # # # # # # # # # # # # # # # # ",
"+ + + M 8 > # # # # # # # # # # # # # # # # # # # # # # # o &       + O # # # # # # # # # # # # # # # # # # # # # # # # ",
"O O O 3 > i # # # # # # # # # # # # # # # # # # # # # # # o &       + O # # # # # # # # # # # # # # # # # # # # # # # # ",
"# # # # # # # # # # # # # # # # # # # # # # # # # # # # # o &       + O # # # # # # # # # # # # # # # # # # # # # # # # ",
"# # # # # # # # # # # # # # # # # # # # # # # # # # # # # o &       + O # # # # # # # # # # # # # # # # # # # # # # # # ",
"# # # # # # # # # # # # # # # # # # # # # # # # # # # # # o &       + O # # # # # # # # # # # # # # # # # # # # ~ X X X ",
"# # # # # # # # # # # # # # # # # # # # # # # # # # # # # o &       + O # # # # # # # # # # # # # # # # # # # O _ 6 * * ",
"# # # # # # # # # # # # # # # # # # # # # # # # # # # # # o &       + O # # # # # # # # # # # # # # # # # # # O `       ",
"# # # # # # # # # # # # # # # # # # # # # # # # # # # # # o &       + O # # # # # # # # # # # # # # # # # # # O +       ",
"$ $ $ $ $ $ $ $ $ $ $ $ $ $ $ $ $ $ $ $ $ $ $ $ $ $ $ $ $ / '       0 y $ $ $ $ $ $ $ $ $ $ $ $ $ $ $ $ $ $ $ y 0       ",
"% % % % % % % % % % % % % % % % % % % % % % % % % % % % % 2 u       ; < % % % % % % % % % % % % % % % % % % % < ;       ",
"                                                                                                                        ",
"                                                                                                                        ",
"                                    z                                                                                   ",
"% % % % % % % % % % % % % % % % 8 W       p e % % % % % % % % % % % % % % % % % % % 2 m       m 2 % % % % % % % % % % % ",
"$ $ $ $ $ $ $ $ $ $ $ $ $ $ $ $ K P       F d $ $ $ $ $ $ $ $ $ $ $ $ $ $ $ $ $ $ $ B 2       2 B $ $ $ $ $ $ $ $ $ $ $ ",
"# # # # # # # # # # # # # # # # @ .       * X # # # # # # # # # # # # # # # # # # # $ %       % $ # # # # # # # # # # # ",
"# # # # # # # # # # # # # # # # @ .       * X # # # # # # # # # # # # # # # # # # # $ %       % $ # # # # # # # # # # # ",
"# # # # # # # # # # # # # # # # @ .       * X # # # # # # # # # # # # # # # # # # # $ %       % $ # # # # # # # # # # # ",
"# # # # # # # # # # # # # # # # @ .       * X # # # # # # # # # # # # # # # # # # # $ %       % $ # # # # # # # # # # # ",
"# # # # # # # # # # # # # # # # @ .       * X # # # # # # # # # # # # # # # # # # # $ %       % $ # # # # # # # # # # # ",
"# # # # # # # # # # # # # # # # @ .       * X # # # # # # # # # # # # # # # # # # # $ %       % $ # # # # # # # # # # # ",
"O O O 3 > i # # # # # # # # # # @ .       * X # # # # # # # # # # # # # # # # @ 3 O n <       < n O 3 @ # # # # # # # # ",
"+ + + M 8 > # # # # # # # # # # @ .       * X # # # # # # # # # # # # # # # X b V + 1 ;       ; 1 + V b X # # # # # # # ",
"        u O # # # # # # # # # # @ .       * X # # # # # # # # # # # # # # # X v                       v X # # # # # # # ",
"        + O # # # # # # # # # # @ .       * X # # # # # # # # # # # # # # # X *                       * X # # # # # # # ",
"        0 ..o o o o o o o o o o k l       w 4 o o o o o o o o o o o o o o o 4 w                       w 4 o o o o o o o ",
"        | ) & & & & & & & & & & I 8       6 5 & & & & & & & & & & & & & & & 5 6                       6 5 & & & & & & & ",
"                                    7                                                                                   ",
"                                                                                                                        ",
"                                                                                                                        ",
"+ + + + + + + + + + + + + + + + + + + + + + + + + 1 t               t 1 + + + + + + + + + + + + + + + + + + + 1 t       ",
"O O O O O O O O O O O O O O O O O O O O O O O O O r 9               9 r O O O O O O O O O O O O O O O O O O O r 9       ",
"# # # # # # # # # # # # # # # # # # # # # # # # # O +               + O # # # # # # # # # # # # # # # # # # # O +       ",
"# # # # # # # # # # # # # # # # # # # # # # # # # O +               + O # # # # # # # # # # # # # # # # # # # O +       ",
"# # # # # # # # # # # # # # # # # # # # # # # # # O N               + O # # # # # # # # # # # # # # # # # # # O N       ",
"# # # # # # # # # # # # # # # # # # # # # # # # # # x c , E R       + O # # # # # # # # # # # # # # # # # # # # x c , , ",
"# # # # # # # # # # # # # # # # # # # # # # # # # # : X X 4 5       + O # # # # # # # # # # # # # # # # # # # # : X X X ",
"# # # # # # # # # # # # # # # # # # # # # # # # # # # # # o &       + O # # # # # # # # # # # # # # # # # # # # # # # # ",
"$ $ $ { 3 i # # # # # # # # # # # # # # # # # # # # # # # o &       0 y $ $ $ : # # # # # # # # # # # # # # # # # # # # ",
"% % %  .} X.# # # # # # # # # # # # # # # # # # # # # # # o &       ; < % % ( g : # # # # # # # # # # # # # # # # # # # ",
"        [ O # # # # # # # # # # # # # # # # # # # # # # # o &                 , X # # # # # # # # # # # # # # # # # # # ",
"        + O # # # # # # # # # # # # # # # # # # # # # # # o &                 , X # # # # # # # # # # # # # # # # # # # ",
"        9 ] @ @ @ @ @ @ @ @ @ @ @ @ @ @ @ @ @ @ @ @ @ @ @ k !                 Y o @ @ @ @ @ @ @ @ @ @ @ @ @ @ @ @ @ @ @ ",
"        o.^ . . . . . . . . . . . . . . . . . . . . . . . l J                 U j . . . . . . . . . . . . . . . . . . . ",
"                                                              7                                                         ",
"                                                                                                                        ",
"                                                                                                                        ",
"        7 ; * * * * * * * * * * ; Z                 A ; * * * * * * * * * * ;                 p G * * * * * * ; 7       ",
"        + $ X X X X X X X X X X o j                 D > X X X X X X X X X X = *               e d X X X X X X $ +       ",
"        + O # # # # # # # # # # @ .                 - = # # # # # # # # # # X *               % $ # # # # # # O +       ",
"        + O # # # # # # # # # # @ .                 - = # # # # # # # # # # X *               % $ # # # # # # O +       ",
"        a O # # # # # # # # # # @ .                 C = # # # # # # # # # # X z               % $ # # # # # # O a       ",
"- - - q f : # # # # # # # # # # @ .       S h - - H g : # # # # # # # # # # # h q - L T       % $ # # # # # # : f q - - ",
"= = = = s # # # # # # # # # # # @ .       * > = = = : # # # # # # # # # # # # = = = Q e       % $ # # # # # # # s = = = ",
"# # # # # # # # # # # # # # # # @ .       * X # # # # # # # # # # # # # # # # # # # $ %       % $ # # # # # # # # # # # ",
"# # # # # # # # # # # # # # # # @ .       * X # # # # # # # # # # # # # # # # # # # $ %       % $ # # # # # # # # # # # "
};
