/* XPM */
static char *result[] = {
/* columns rows colors chars-per-pixel */
"60 60 166 2 ",
"   c #010100",
".  c #191500",
"X  c #1F1A00",
"o  c #3F0300",
"O  c #340800",
"+  c #330009",
"@  c #3B0508",
"#  c #371007",
"$  c #3D160C",
"%  c #3A1B0A",
"&  c #2D0019",
"*  c #3E0F17",
"=  c #340419",
"-  c #370818",
";  c #3A0B19",
":  c #3F1017",
">  c #3F121B",
",  c #2F2800",
"<  c #420B04",
"1  c #430E09",
"2  c #4A080C",
"3  c #44110E",
"4  c #47180E",
"5  c #501D0D",
"6  c #451617",
"7  c #471817",
"8  c #4A1B16",
"9  c #451618",
"0  c #471818",
"q  c #491B19",
"w  c #453A00",
"e  c #4E2015",
"r  c #41211C",
"t  c #532415",
"y  c #572814",
"u  c #5B2C14",
"i  c #5E3013",
"p  c #663813",
"a  c #683A12",
"s  c #643416",
"d  c #471D21",
"f  c #491D24",
"g  c #5C1B3E",
"h  c #66113D",
"j  c #492025",
"k  c #4A242C",
"l  c #4D2E3C",
"z  c #4C2A35",
"x  c #51293B",
"c  c #4E303E",
"v  c #574900",
"b  c #6D5C00",
"n  c #655400",
"m  c #705E00",
"M  c #724411",
"N  c #754813",
"B  c #7B4D11",
"V  c #7E5110",
"C  c #776400",
"Z  c #796600",
"A  c #7C6800",
"S  c #791159",
"D  c #4E3140",
"F  c #4F394B",
"G  c #7F1768",
"H  c #534057",
"J  c #54435C",
"K  c #554A65",
"L  c #574E6C",
"P  c #595375",
"I  c #84570F",
"U  c #87590F",
"Y  c #895C0F",
"T  c #8E620E",
"R  c #91650E",
"E  c #996D0D",
"W  c #966A0D",
"Q  c #917A00",
"!  c #9E720C",
"~  c #A1750C",
"^  c #A97D0B",
"/  c #A67A0B",
"(  c #AD820C",
")  c #B1850A",
"_  c #B5890A",
"`  c #BA8F09",
"'  c #AE9300",
"]  c #B19401",
"[  c #B59800",
"{  c #BE9F01",
"}  c #C19608",
"|  c #C99E08",
" . c #C69C08",
".. c #CCA207",
"X. c #CBAA01",
"o. c #D1A707",
"O. c #D3A906",
"+. c #DDB603",
"@. c #D5B201",
"#. c #E5BC04",
"$. c #E9BF04",
"%. c #EDC502",
"&. c #EFC801",
"*. c #E6C101",
"=. c #F1C703",
"-. c #F4CB02",
";. c #F9CF03",
":. c #FDD402",
">. c #FFDB01",
",. c #FFE301",
"<. c #FFEC00",
"1. c #FFF200",
"2. c yellow",
"3. c #5C5C83",
"4. c #5F5F8B",
"5. c #6B5995",
"6. c #5D618B",
"7. c #5E6692",
"8. c #5E6A92",
"9. c #606794",
"0. c #606A99",
"q. c #6170A0",
"w. c #6479AF",
"e. c #657CB5",
"r. c #6E7FC4",
"t. c #AB0692",
"y. c #A41195",
"u. c #912992",
"i. c #EE08F2",
"p. c #FC00F6",
"a. c #F607FD",
"s. c #FC03FE",
"d. c #F20CFD",
"f. c #FF09FF",
"g. c #CE37FA",
"h. c #CF38FE",
"j. c #D038FE",
"k. c #DA3AFF",
"l. c #6684BD",
"z. c #6689C4",
"x. c #6A89C5",
"c. c #6C8CC8",
"v. c #6990D0",
"b. c #6D96DB",
"n. c #6B99DE",
"m. c #6E99E1",
"M. c #709FEB",
"N. c #729FE6",
"B. c #6BA6EA",
"V. c #70A1ED",
"C. c #6EAFFA",
"Z. c #6FA7F3",
"A. c #72A5F4",
"S. c #75A7FD",
"D. c #7AA4FE",
"F. c #74ABFD",
"G. c #7CAAFF",
"H. c #6FB1FE",
"J. c #76B4FF",
"K. c #7AB3FF",
"L. c #72BCFF",
"P. c #7AC1FF",
"I. c #7ECAFF",
"U. c #8A8EFE",
"Y. c #8F97FF",
"T. c None",
/* pixels */
"T.T.T.T.T.T.T.T.T.T.T.T.T.T.T.T.T.T.T.T.T.T.T.T.T.T.T.T.T.T.T.T.T.T.T.T.T.T.T.T.T.T.T.T.T.T.T.T.T.T.T.T.T.T.T.T.T.T.T.T.",
"T.T.T.T.T.T.T.T.T.T.T.T.T.T.T.T.T.T.T.T.T.T.T.T.T.T.T.T.T.T.T.T.T.T.T.T.T.T.T.T.T.T.T.T.T.T.T.T.T.T.T.T.T.T.T.T.T.T.T.T.",
"T.T.T.T.T.T.T.T.T.T.T.T.T.T.T.T.T.T.T.T.T.6 6 0 0 0 0 0 0 0 0 0 7 9 7 9 0 7 T.T.T.T.T.T.T.T.T.T.T.T.T.T.T.T.T.T.T.T.T.T.",
"T.T.T.T.T.T.T.T.T.T.T.T.T.T.T.T.T.T.T.T.6 6 7 0 6 7 6 6 6 6 6 6 6 7 9 7 0 9 6 T.T.T.T.T.T.T.T.T.T.T.T.T.T.T.T.T.T.T.T.T.",
"T.T.T.T.T.T.T.T.T.T.T.T.T.T.T.T.T.T.T.6 7 6 6 0 7 7 7 7 0 0 0 7 0 7 7 7 0 7 7 6 T.T.T.T.T.T.T.T.T.T.T.T.T.T.T.T.T.T.T.T.",
"T.T.T.T.T.T.T.T.T.T.T.T.T.T.T.T.T.T.6 6 0 6 0 6 9 7 9 7 7 6 6 6 6 7 7 9 0 9 6 6 6 6 T.T.T.T.T.T.T.T.T.T.T.T.T.T.T.T.T.T.",
"T.T.T.T.T.T.T.T.T.T.T.T.T.T.T.T.T.T.7 6 6 0 6 0 7 7 7 7 0 0 0 0 0 0 6 8 6 0 0 6 6 6 T.T.T.T.T.T.T.T.T.T.T.T.T.T.T.T.T.T.",
"T.T.T.T.T.T.T.T.T.T.T.T.T.T.T.T.6 6 6 0 0 6 7 6 7 7 7 7 0 6 6 7 6 6 0 9 0 6 9 9 7 6 6 6 T.T.T.T.T.T.T.T.T.T.T.T.T.T.T.T.",
"T.T.T.T.T.T.T.T.T.T.T.T.T.T.T.T.9 7 9 7 6 6 8 6 9 7 0 0 7 9 0 7 7 7 0 7 0 7 0 8 0 6 7 6 T.T.T.T.T.T.T.T.T.T.T.T.T.T.T.T.",
"T.T.T.T.T.T.T.T.T.T.T.T.T.T.T.T.7 7 7 6 6 9 9 6 7 7 7 7 9 7 9 9 6 6 6 6 6 6 6 6 6 0 6 6 6 6 T.T.T.T.T.T.T.T.T.T.T.T.T.T.",
"T.T.T.T.T.T.T.T.T.T.T.T.T.T.T.T.9 7 6 7 6 8 t 8 7 0 0 7 7 7 8 t e 6 7 6 8 9 9 9 8 9 0 6 7 6 T.T.T.T.T.T.T.T.T.T.T.T.T.T.",
"T.T.T.T.T.T.T.T.T.T.T.T.T.T.9 7 9 7 6 6 = ! >.M = 7 7 7 7 - p :.( * 7 6 9 * 6 7 9 6 6 0 0 6 T.T.T.T.T.T.T.T.T.T.T.T.T.T.",
"T.T.T.T.T.T.T.T.T.T.T.T.T.T.6 6 7 7 9 u p ` ,.E p t 8 8 e p R ,.` : 8 6 u M t 6 0 9 7 0 7 6 T.T.T.T.T.T.T.T.T.T.T.T.T.T.",
"T.T.T.T.T.T.T.T.T.T.T.T.T.T.6 0 7 8 - ~ ,.;.:.:.-.u = - 8 =.:.>.) = 9 & ~ ,.M = 8 6 9 0 9 6 T.T.T.T.T.T.T.T.T.T.T.T.T.T.",
"T.T.T.T.T.T.T.T.T.T.T.T.T.T.6 0 7 8 - ~ ,.;.:.:.:.! Y Y W ;.:.>.o.U T I | ,.( I t 9 8 8 6 7 T.T.T.T.T.T.T.T.T.T.T.T.T.T.",
"T.T.T.T.T.T.T.T.T.T.T.T.T.T.6 7 9 8 - ~ ,.:.:.:.:.>.>.>.>.:.:.:.:.,.>.>.:.:.>.:.a * * - 6 9 7 6 T.T.T.T.T.T.T.T.T.T.T.T.",
"T.T.T.T.T.T.T.T.T.T.T.T.T.6 6 6 7 8 - ~ ,.;.:.:.;.:.:.:.:.:.:.:.:.;.;.;.:.:.:.;.s 7 ! E 8 6 0 6 T.T.T.T.T.T.T.T.T.T.T.T.",
"T.T.T.T.T.T.T.T.T.T.T.T.6 6 9 8 7 0 - ~ ,.:.,.,.,.:.:.:.:.:.:.:.>.,.,.,.>.:.:.:.y > >.:.e 9 7 6 T.T.T.T.T.T.T.T.T.T.T.T.",
"T.T.T.T.T.T.T.T.T.T.T.T.9 7 0 0 7 8 ; ~ <.] b C C *.>.:.:.:.:.>.X.b C b { >.:.:._ ^ -.$.e 6 7 7 T.T.T.T.T.T.T.T.T.T.T.T.",
"T.T.T.T.T.T.T.T.T.T.T.T.6 0 6 0 7 7 = E 1.n       X.>.:.:.:.;.,.Q       Z ,.;.:.>.,.>.%.8 9 0 6 T.T.T.T.T.T.T.T.T.T.T.T.",
"T.T.T.T.T.T.T.T.T.T.T.T.6 0 6 0 * N  .+.>.@.' ] [ -.:.>.:.:.:.>.+.[ [ ' +.:.:.:.:.-.Y N 8 6 0 6 T.T.T.T.T.T.T.T.T.T.T.T.",
"T.T.T.T.T.T.T.T.T.T.T.T.6 0 7 8 ; R ,.:.:.>.,.>.,.:.:.;.:.-.:.:.:.>.,.,.>.:.:.:.:.%.8 - 6 7 0 6 T.T.T.T.T.T.T.T.T.T.T.T.",
"T.T.T.T.T.T.T.T.T.T.T.T.6 0 9 8 ; Y >.:.:.:.:.:.:.:.&., X . v :.:.:.:.:.:.:.>.:.B y 8 7 8 6 0 6 T.T.T.T.T.T.T.T.T.T.T.T.",
"T.T.T.T.T.T.T.T.T.T.T.T.6 0 6 8 ; Y :.-.:.:.:.:.:.:.=..     w :.:.:.:.:.-.-.=.%.u * 8 9 9 6 0 6 T.T.T.T.T.T.T.T.T.T.T.T.",
"T.T.T.T.T.T.T.T.T.T.T.T.6 0 6 0 6 8 6 ^ ,.:.>.:.:.:.:.&.&.%.-.:.:.:.:.,./ 6 t t 8 7 0 9 6 6 0 0 T.T.T.T.T.T.T.T.T.T.T.T.",
"T.T.T.T.T.T.T.T.T.T.T.T.6 0 0 0 6 8 = W -.#.#.-.:.:.:.:.:.>.>.:.:.:.=.=.T - 6 6 6 7 0 0 0 7 0 6 T.T.T.T.T.T.T.T.T.T.T.T.",
"T.T.T.T.T.T.T.T.T.T.T.T.6 7 6 6 6 7 6 8 e 8 8 ..<.>.>.>.>.:.:.:.:.<./ 9 8 6 7 7 0 6 6 7 6 6 7 6 T.T.T.T.T.T.T.T.T.T.T.T.",
"T.T.T.T.T.T.T.T.T.T.T.T.6 6 6 7 7 6 0 9 9 0 : ~ O.| ..| ..:.:.:.#.o.Y - 8 7 7 0 6 6 6 7 9 7 6 T.T.T.T.T.T.T.T.T.T.T.T.T.",
"T.T.T.T.T.T.T.T.T.T.T.T.T.T.7 6 T.T.6 0 0 7 7 6 9 9 9 * y -.:.>._ - 6 6 7 9 0 6 7 7 T.T.6 6 T.T.T.T.T.T.T.T.T.T.T.T.T.T.",
"T.T.T.T.T.T.T.T.T.T.T.T.T.T.6 T.T.T.6 6 6 6 6 7 6 6 6 9 y =.:.>._ * 8 6 6 7 6 7 6 6 T.T.6 T.T.T.T.T.T.T.T.T.T.T.T.T.T.T.",
"T.T.T.T.T.T.T.T.T.T.T.T.T.T.T.T.T.T.T.T.T.T.T.T.T.T.T.9 y >.,.<.} * T.T.T.T.T.T.9 6 T.T.T.T.T.T.T.T.T.T.T.T.T.T.T.T.T.T.",
"T.T.T.T.T.T.T.T.T.T.T.T.T.T.T.T.T.T.T.T.T.T.T.T.T.T.0 9 8 ! ~ / V 9 0 T.0 6 T.T.T.T.T.T.T.T.T.T.T.T.T.T.T.T.T.T.T.T.T.T.",
"T.T.T.T.T.T.T.T.T.T.T.T.T.T.T.T.T.T.T.T.T.T.T.T.T.6 1 6 9 - - - 9 9 6 1 6 0 T.T.T.T.T.T.T.T.T.T.T.T.T.T.T.T.T.T.T.T.T.T.",
"T.T.T.T.T.T.T.T.T.T.T.T.T.T.T.T.T.T.T.T.6 6 6 6 0 8.q.d 7 8 8 8 7 1 K e.F 3 0 0 0 9 T.T.T.T.T.T.T.T.T.T.T.T.T.T.T.T.T.T.",
"T.T.T.T.T.T.T.T.T.T.T.T.T.T.T.T.T.T.T.6 6 6 6 6 9 m.F.f 1 9 6 6 9 < 4.P.3.< 0 6 6 6 T.T.T.T.T.T.T.T.T.T.T.T.T.T.T.T.T.T.",
"T.T.T.T.T.T.T.T.T.T.T.T.T.T.T.T.T.T.< P m.K < 7.v.Z.C.c.z.z.z.z.z.l.n.J.n.z.F 3 w.x.d 1 T.T.T.T.T.T.T.T.T.T.T.T.T.T.T.T.",
"T.T.T.T.T.T.T.T.T.T.T.T.T.T.T.T.T.T.3 4.P.P 2 x.K.D.D.G.G.G.G.G.G.G.G.D.S.G.J 6 b.A.z 0 T.T.T.T.T.T.T.T.T.T.T.T.T.T.T.T.",
"T.T.T.T.T.T.T.T.T.T.T.T.T.T.T.T.1 L K.4.% y.p.i.d.d.d.d.d.d.d.d.d.d.d.d.d.d.S $ f z m.b.d 6 T.T.T.T.T.T.T.T.T.T.T.T.T.T.",
"T.T.T.T.T.T.T.T.T.T.T.T.T.T.T.T.1 L J.4.O y.f.a.s.s.a.s.a.a.s.a.a.s.d.s.s.s.G r 6 q A.V.0 6 T.T.T.T.T.T.T.T.T.T.T.T.T.T.",
"T.T.T.T.T.T.T.T.T.T.T.T.T.T.T.T.1 L P.9.< 0.G.S.S.S.F.S.S.S.F.S.S.S.D.S.F.S.Z.B.z d F.A.d 6 T.T.T.T.T.T.T.T.T.T.T.T.T.T.",
"T.T.T.T.T.T.T.T.T.T.T.T.T.T.T.T.1 J N.P @ 5.Y.U.U.U.U.U.U.U.U.U.U.U.U.U.U.U.U.U.x 9 c.z.q 6 T.T.T.T.T.T.T.T.T.T.T.T.T.T.",
"T.T.T.T.T.T.T.T.T.T.T.T.T.T.T.T.6 9 ; 9 % t.s.p.s.s.s.s.s.s.s.s.s.s.s.s.s.s.s.p.h : > ; 9 9 T.T.T.T.T.T.T.T.T.T.T.T.T.T.",
"T.T.T.T.T.T.T.T.T.T.T.T.T.T.T.T.9 u U s # u.k.g.j.j.j.j.j.j.g.j.j.j.j.j.j.j.g.g.g 4 V B 6 6 T.T.T.T.T.T.T.T.T.T.T.T.T.T.",
"T.T.T.T.T.T.T.T.T.T.T.T.T.T.T.T.- T 2.( + 8.L.H.H.F.H.H.H.F.H.J.H.F.H.H.H.F.J.C.c 5 ,.>.8 9 T.T.T.T.T.T.T.T.T.T.T.T.T.T.",
"T.T.T.T.T.T.T.T.T.T.T.T.T.T.T.T.: a ( N @ 9.K.F.F.F.F.F.F.F.F.A.F.F.F.F.F.F.F.F.l 4 ! ! 8 6 T.T.T.T.T.T.T.T.T.T.T.T.T.T.",
"T.T.T.T.T.T.T.T.T.T.T.T.T.T.T.T.6 6 - > 1 6.J.F.F.F.F.K.J.J.J.J.J.F.F.F.F.F.F.F.l 6 ; ; 6 7 T.T.T.T.T.T.T.T.T.T.T.T.T.T.",
"T.T.T.T.T.T.T.T.T.T.T.T.T.T.T.T.T.T.T.q 1 7.J.F.F.F.A.7.6.6.4.3.e.F.F.F.F.F.F.F.l 6 8 T.6 T.T.T.T.T.T.T.T.T.T.T.T.T.T.T.",
"T.T.T.T.T.T.T.T.T.T.T.T.T.T.T.T.T.T.T.T.1 7.J.F.F.F.V.6 o < 1 o K J.F.F.F.F.F.A.l 1 T.T.T.T.T.T.T.T.T.T.T.T.T.T.T.T.T.T.",
"T.T.T.T.T.T.T.T.T.T.T.T.T.T.T.T.T.T.T.T.1 7.J.F.F.F.A.k 6 T.T.3 P J.F.F.F.F.F.F.l 3 T.T.T.T.T.T.T.T.T.T.T.T.T.T.T.T.T.T.",
"T.T.T.T.T.T.T.T.T.T.T.T.T.T.T.T.T.T.T.T.1 7.J.A.A.F.V.j 6 T.T.1 L F.A.A.F.F.F.A.l 6 T.T.T.T.T.T.T.T.T.T.T.T.T.T.T.T.T.T.",
"T.T.T.T.T.T.T.T.T.T.T.T.T.T.T.T.T.T.T.T.6 k c c l l l 0 6 T.T.6 f D l l c c l l 0 0 T.T.T.T.T.T.T.T.T.T.T.T.T.T.T.T.T.T.",
"T.T.T.T.T.T.T.T.T.T.T.T.T.T.T.T.T.T.T.T.6 6 3 3 3 3 6 6 6 T.T.6 6 3 6 3 3 3 3 3 6 0 T.T.T.T.T.T.T.T.T.T.T.T.T.T.T.T.T.T.",
"T.T.T.T.T.T.T.T.T.T.T.T.T.T.T.T.T.T.T.T.T.T.T.0 0 0 0 0 6 T.T.7 0 0 0 0 8 7 T.T.T.T.T.T.T.T.T.T.T.T.T.T.T.T.T.T.T.T.T.T.",
"T.T.T.T.T.T.T.T.T.T.T.T.T.T.T.T.T.T.T.T.T.T.T.6 7 0 0 0 9 T.T.6 0 0 0 0 6 6 T.T.T.T.T.T.T.T.T.T.T.T.T.T.T.T.T.T.T.T.T.T.",
"T.T.T.T.T.T.T.T.T.T.T.T.T.T.T.T.T.T.T.T.T.6 6 6 6 9 7 6 7 T.T.6 7 7 7 6 6 7 7 6 T.T.T.T.T.T.T.T.T.T.T.T.T.T.T.T.T.T.T.T.",
"T.T.T.T.T.T.T.T.T.T.T.T.T.T.T.T.T.T.T.T.T.T.6 6 7 6 6 6 6 T.T.6 6 6 6 9 6 6 6 6 T.T.T.T.T.T.T.T.T.T.T.T.T.T.T.T.T.T.T.T.",
"T.T.T.T.T.T.T.T.T.T.T.T.T.T.T.T.T.T.T.T.T.T.T.T.T.T.T.T.T.T.T.T.T.T.T.T.T.T.T.T.T.T.T.T.T.T.T.T.T.T.T.T.T.T.T.T.T.T.T.T.",
"T.T.T.T.T.T.T.T.T.T.T.T.T.T.T.T.T.T.T.T.T.T.T.T.T.T.T.T.T.T.T.T.T.T.T.T.T.T.T.T.T.T.T.T.T.T.T.T.T.T.T.T.T.T.T.T.T.T.T.T.",
"T.T.T.T.T.T.T.T.T.T.T.T.T.T.T.T.T.T.T.T.T.T.T.T.T.T.T.T.T.T.T.T.T.T.T.T.T.T.T.T.T.T.T.T.T.T.T.T.T.T.T.T.T.T.T.T.T.T.T.T.",
"T.T.T.T.T.T.T.T.T.T.T.T.T.T.T.T.T.T.T.T.T.T.T.T.T.T.T.T.T.T.T.T.T.T.T.T.T.T.T.T.T.T.T.T.T.T.T.T.T.T.T.T.T.T.T.T.T.T.T.T."
};
