/* XPM */
static char *_647289521223[] = {
/* columns rows colors chars-per-pixel */
"50 50 19 1 ",
"  c #FFC11D",
". c #FFD01F",
"X c #010100",
"o c #3D2D07",
"O c white",
"+ c #808080",
"@ c #83610F",
"# c #F4B41B",
"$ c black",
"% c #7A5A0E",
"& c #FFCF1F",
"* c #898989",
"= c gray25",
"- c #010101",
"; c #808388",
": c #7D6D47",
"> c #7A5705",
", c #7A5706",
"< c #FFD121",
/* pixels */
"$$$$$$$$$$% ########################### %$$$$$$$$$",
"$$$$$$$$$$% ########################### %$$$$$$$$$",
"$$$$$$$$$$% ########################### %$$$$$$$$$",
"$$$$$$$$$$% ########################### %$$$$$$$$$",
"$$$$X$$$$$%.                           .%$$$$$X$$$",
"$$$$$o@%%%%%%%%%%%%%%%%%%%%%%%%%%%%%%%%%%%%%@o$$$$",
"$$$$$@&  .%$$$$$$$$$$$$$$$$$$$$$$$$$$$$$%.  &@$$$$",
"$$$$$% ## %$$$$$$$$$$$$$$$$$$$$$$$$$$$$$% ## %$$$$",
"$$$$$% ## %$$$$$$$$$$$$$$$$$$$$$$$$$$$$$% ## %$$$$",
"$$$$$%.  &@$$$X$$$$$$$$$$$$$$$$$$$$$X$$$@&  .%$$$$",
"%%%%%%%%%@o$$$$o@%%%%%%%%%%%%%%%%%@o$$$$o@%%%%%%%%",
"    .%$$$$$X$$$@&                 &@$$$X$$$$$%.   ",
"#### %$$$$$$$$$% ################# %$$$$$$$$$% ###",
"#### %$$$$$$$$$% ################# %$$$$$$$$$% ###",
"#### %$$$X$$$$$%.                 <,$$$$$-$$$% ###",
"#### %$$$$o@%%%%%%%%%%%%%%%%%%%%%%>:;++*=$$$$% ###",
"#### %$$$$@&  .%$$$$$$$$$$$$$$$$$$$;OOOO*$$$$% ###",
"#### %$$$$% ## %$$$$$$$$$$$$$$$$$$$+OOOO+$$$$% ###",
"#### %$$$$% ## %$$$$$$$$$$$$$$$$$$$+OOOO+$$$$% ###",
"#### %$$$$% ## %$$$$$$$$$$$$$$$$$$$+OOOO+$$$$% ###",
"#### %$$$$% ## %$$$$$$$$$$$$$$$$$$$+OOOO+$$$$% ###",
"#### %$$$$% ## %$$$$$$$$$$$$$$$$$$$+OOOO+$$$$% ###",
"#### %$$$$% ## %$$$$$$$$$$$$$$$$$$$+OOOO+$$$$% ###",
"#### %$$$$% ## %$$$$$$$$$$$$$$$$$$$+OOOO+$$$$% ###",
"#### %$$$$% ## %$$$$$$$$$$$$$$$$$$$+OOOO+$$$$% ###",
"#### %$$$$% ## %$$$$$$$$$$$$$$$$$$$+OOOO+$$$$% ###",
"#### %$$$$% ## %$$$$$$$$$$$$$$$$$$$+OOOO+$$$$% ###",
"#### %$$$$% ## %$$$$$$$$$$$$$$$$$$$+OOOO+$$$$% ###",
"#### %$$$$% ## %$$$$$$$$$$$$$$$$$$$+OOOO+$$$$% ###",
"#### %$$$$% ## %$$$$$$$$$$$$$$$$$$$+OOOO+$$$$% ###",
"#### %$$$$% ## %$$$$$$$$$$$$$$$$$$$+OOOO+$$$$% ###",
"#### %$$$$% ## %$$$$$$$$$$$$$$$$$$$+OOOO+$$$$% ###",
"#### %$$$$% ## %$$$$$$$$$$$$$$$$$$$+OOOO+$$$$% ###",
"#### %$$$$% ## %$$$$$$$$$$$$$$$$$$$+OOOO+$$$$% ###",
"#### %$$$$@&  <,$$$$$$$$$$$$$$$$$$$+OOOO*$$$$% ###",
"#### %$$$$o@%%>:;++++++++++++++++++++++*=$$$$% ###",
"#### %$$$X$$$$$;OOOOOOOOOOOOOOOOOOO+$$$$$-$$$% ###",
"#### %$$$$$$$$$+OOOOOOOOOOOOOOOOOOO+$$$$$$$$$% ###",
"#### %$$$$$$$$$+OOOOOOOOOOOOOOOOOOO+$$$$$$$$$% ###",
"    .%$$$$$X$$$*OOOOOOOOOOOOOOOOOOO*$$$X$$$$$%.   ",
"%%%%%%%%%@o$$$$=*+++++++++++++++++*=$$$$o@%%%%%%%%",
"$$$$$%.  &@$$$-$$$$$$$$$$$$$$$$$$$$$-$$$@&  .%$$$$",
"$$$$$% ## %$$$$$$$$$$$$$$$$$$$$$$$$$$$$$% ## %$$$$",
"$$$$$% ## %$$$$$$$$$$$$$$$$$$$$$$$$$$$$$% ## %$$$$",
"$$$$$@&  .%$$$$$$$$$$$$$$$$$$$$$$$$$$$$$%.  &@$$$$",
"$$$$$o@%%%%%%%%%%%%%%%%%%%%%%%%%%%%%%%%%%%%%@o$$$$",
"$$$$X$$$$$%.                           .%$$$$$X$$$",
"$$$$$$$$$$% ########################### %$$$$$$$$$",
"$$$$$$$$$$% ########################### %$$$$$$$$$",
"$$$$$$$$$$% ########################### %$$$$$$$$$"
};
