/* XPM */
static char *_647289496197[] = {
/* columns rows colors chars-per-pixel */
"60 60 53 1 ",
"  c black",
". c #5668D4",
"X c #6074EE",
"o c #11152A",
"O c #5C6FE4",
"+ c #6276F2",
"@ c #1E244A",
"# c #5B6EE1",
"$ c #5C70E4",
"% c #05060D",
"& c #6074ED",
"* c #5B6EE0",
"= c #3D4A97",
"- c #11152B",
"; c #1C2245",
": c #6276F3",
"> c #6176F1",
", c #101328",
"< c #1E244B",
"1 c #5F72EA",
"2 c #04050A",
"3 c #5667D4",
"4 c #5668D5",
"5 c #0D1020",
"6 c #6377F5",
"7 c #6175EF",
"8 c #6174EF",
"9 c #293266",
"0 c #6175F1",
"q c #5F73EB",
"w c #0C0E1D",
"e c #5D70E5",
"r c #3C4995",
"t c #5A6DE0",
"y c #6074EF",
"u c #101428",
"i c #4351A5",
"p c #5B6FE2",
"a c #000001",
"s c #3F4C9C",
"d c #6074EC",
"f c #3D4A96",
"g c #6277F2",
"h c #141832",
"j c #424FA3",
"k c #20264E",
"l c #1B2042",
"z c #323C7B",
"x c #6073EC",
"c c #5F73EC",
"v c #677CFF",
"b c #5B6DE0",
"n c #1A2041",
/* pixels */
"                 @+#######################+@                ",
"                 @+#######################+@                ",
"                 @+#######################+@                ",
"                 ;:#######################:;                ",
"         ,-ooooo598#######################895ooooo-,        ",
"         *>XXXXX71*#######################*17XXXXX>*        ",
"         .O#######################################O.        ",
"         .O#######################################O.        ",
"         .O###########$$$$$$$$$$$$$$$$$###########O.        ",
"    ut..3*##########O42%%%%%%%%%%%%%%%24O##########*3..tu   ",
"    -0OOO###########O.                 .O###########OOO0-   ",
"    oX##############O.                 .O##############Xo   ",
"    wy######bcg+++++6$                 $6+++++gcb######yw   ",
"===rie######xzn@@@@@<;                 ;<@@@@@nzx######eir==",
"&&&&q*######:l                                 l:######*q&&&",
"############+@                                 @+###########",
"#########d&&vk                                 kv&&d########",
"########psf=jh                                 hj=fsp#######",
"########$     a                               a     $#######",
"########$%                                         %$#######",
"########$%                                         %$#######",
"########$%                                         %$#######",
"########$%                                         %$#######",
"########$%                                         %$#######",
"########$%                                         %$#######",
"########$%                                         %$#######",
"########$%                                         %$#######",
"########$%                                         %$#######",
"########$%                                         %$#######",
"########$%                                         %$#######",
"########$%                                         %$#######",
"########$%                                         %$#######",
"########$%                                         %$#######",
"########$%                                         %$#######",
"########$%                                         %$#######",
"########$%                                         %$#######",
"########$%                                         %$#######",
"########$%                                         %$#######",
"########$%                                         %$#######",
"########$%                                         %$#######",
"########$%                                         %$#######",
"########$%                                         %$#######",
"########$%                                         %$#######",
"########$%                                         %$#######",
"########$%                                         %$#######",
"########$%                                         %$#######",
"########$%                                         %$#######",
"########$%                                         %$#######",
"########$%                                         %$#######",
"########$%                                         %$#######",
"########$%                                         %$#######",
"########$%                                         %$#######",
"########$%                                         %$#######",
"########$%                                         %$#######",
"########$%                                         %$#######",
"########$%                                         %$#######",
"########$%                                         %$#######",
"########$%                                         %$#######",
"########$%                                         %$#######",
"########$%                                         %$#######"
};
