/* XPM */
static char *_647289509199[] = {
/* columns rows colors chars-per-pixel */
"60 60 72 1 ",
"  c black",
". c #6074EE",
"X c #11152A",
"o c #5668D4",
"O c #5C70E4",
"+ c #05060D",
"@ c #5C6FE4",
"# c #5B6EE1",
"$ c #6074ED",
"% c #3D4A97",
"& c #6276F2",
"* c #1E244A",
"= c #5B6EE2",
"- c #5B6EE0",
"; c #5C6FE3",
": c #12162C",
"> c #6276F3",
", c #5E71E8",
"< c #101328",
"1 c #5769D6",
"2 c #5B6DE0",
"3 c #6073EC",
"4 c #5F73EC",
"5 c #6277F2",
"6 c #323C7B",
"7 c #1B2042",
"8 c #1A2041",
"9 c #5F73EB",
"0 c #0C0E1D",
"q c #5D70E5",
"w c #5567D3",
"e c #3C4995",
"r c #6074EF",
"t c #4351A5",
"y c #11152B",
"u c #030408",
"i c #6075EE",
"p c #667BFC",
"a c #1C2245",
"s c #3B4893",
"d c #6176F1",
"f c #04050A",
"g c #4B5BB9",
"h c #4958B4",
"j c #5668D5",
"k c #5E72E8",
"l c #4A59B6",
"z c #000001",
"x c #4A59B7",
"c c #5F72EA",
"v c #5667D4",
"b c #0D1020",
"n c #6175EF",
"m c #6174EF",
"M c #293266",
"N c #3D4996",
"B c #6175F1",
"V c #5A6DE0",
"C c #101428",
"Z c #5668D3",
"A c #101427",
"S c #596CDD",
"D c #5B6FE2",
"F c #3F4C9C",
"G c #6074EC",
"H c #3D4A96",
"J c #3F4D9D",
"K c #404D9E",
"L c #687DFF",
"P c #677DFF",
"I c #283063",
"U c #1C2246",
/* pixels */
"                 *&#######################&*                ",
"                 *&#######################&*                ",
"                 *&#######################&*                ",
"                 a>#######################>a                ",
"         <yXXXXXbMm#######################mMbXXXXXy<        ",
"         -d.....nc-#######################-cn.....d-        ",
"         o@#######################################@o        ",
"         o@#######################################@o        ",
"         o@###########OOOOOOOOOOOOOOOOO###########@o        ",
"    CVoov-##########@jf+++++++++++++++fj@##########-vooVC   ",
"    yB@@@###########@o                 o@###########@@@By   ",
"    X.##############@o                 o@##############.X   ",
"    0r######245&542#@Z                 Z@#245&542######r0   ",
"%%%etq######368*863#=SN%%%%%%%%%%%%%%%NS=#368*863######qte%%",
"$$$$9-######>7   7>##=$$$$$$$$$$$$$$$$$=##>7   7>######-9$$$",
"############&*   *&#######################&*   *&###########",
"#########G$$LU   7>#######################>7   UL$$G########",
"########DFH%KIa*863#######################368*aIK%HFD#######",
"########O    JP&542#######################245&PJ    O#######",
"########O+   %$###############################$%   +O#######",
"########O+   %$###########;@@@@@@@;###########$%   +O#######",
"########O+   %$##########=1wooooow1=##########$%   +O#######",
"########O+   %$##########.A       A.##########$%   +O#######",
"########O+   %$##########.X       X.##########$%   +O#######",
"########O+   %$##########.X       X.##########$%   +O#######",
"########O+   %$######=i..p:       :p..i=######$%   +O#######",
"########O+   %$#####;1<XX:u       u:XX<1;#####$%   +O#######",
"########O+   %$#####@o                 o@#####$%   +O#######",
"########O+   %$#####@o                 o@#####$%   +O#######",
"########O+   %$#####@o                 o@#####$%   +O#######",
"########O+   %$#####@o                 o@#####$%   +O#######",
"########O+   %$#####@o                 o@#####$%   +O#######",
"########O+   %$#####@o                 o@#####$%   +O#######",
"########O+   %$#####@o                 o@#####$%   +O#######",
"########O+   %$#####;1<XX:u       u:XX<1;#####$%   +O#######",
"########O+   %$######=i..p:       :p..i=######$%   +O#######",
"########O+   %$##########.X       X.##########$%   +O#######",
"########O+   %$##########.X       X.##########$%   +O#######",
"########O+   %$##########.X       X.##########$%   +O#######",
"########O+   %$##########.X       X.##########$%   +O#######",
"########O+   %$##########.X       X.##########$%   +O#######",
"########O+   %$##########.X       X.##########$%   +O#######",
"########O+   %$##########r0       0r##########$%   +O#######",
"########O+   %$##########qte%%%%%etq##########$%   +O#######",
"########O+   %$##########-9$$$$$$$9-##########$%   +O#######",
"########O+   %$###############################$%   +O#######",
"########O+   %$###############################$%   +O#######",
"########O+   %$###############################$%   +O#######",
"########O+   %$###############################$%   +O#######",
"########O+   %$###############################$%   +O#######",
"########O+   %$###############################$%   +O#######",
"########O+   %$###############################$%   +O#######",
"########O+   %$###############################$%   +O#######",
"########O+   %$###############################$%   +O#######",
"########O+   %$###############################$%   +O#######",
"########Oz   s.###############################.s   zO#######",
"########=glxhw;###############################;whxlg=#######",
"#########,,,k;#################################;k,,,########",
"############################################################",
"############################################################"
};
