/* XPM */
static char *_647289513223[] = {
/* columns rows colors chars-per-pixel */
"64 60 167 2 ",
"   c black",
".  c #B73535",
"X  c #200909",
"o  c #B83535",
"O  c #B63535",
"+  c #AE3333",
"@  c #180707",
"#  c #AC3232",
"$  c #B43434",
"%  c #B93636",
"&  c #561919",
"*  c #230A0A",
"=  c #B13333",
"-  c #0E0404",
";  c #B53535",
":  c #8C2929",
">  c #B13434",
",  c #381010",
"<  c #060202",
"1  c #A22F2F",
"2  c #AF3333",
"3  c #AD3232",
"4  c #742222",
"5  c #0A0303",
"6  c #B23434",
"7  c #010000",
"8  c #892828",
"9  c #B03333",
"0  c #A63030",
"q  c #712121",
"w  c #491515",
"e  c #2F0E0E",
"r  c #B83636",
"t  c #942B2B",
"y  c #220A0A",
"u  c #7D2424",
"i  c #631D1D",
"p  c #3B1111",
"a  c #BA3636",
"s  c #250B0B",
"d  c #9E2E2E",
"f  c #A32F2F",
"g  c #AB3232",
"h  c #C13838",
"j  c #A12F2F",
"k  c #030101",
"l  c #C23939",
"z  c #792323",
"x  c #BF3737",
"c  c #C43939",
"v  c #7C2424",
"b  c #4D1616",
"n  c #0B0303",
"m  c #0F0404",
"M  c #300E0E",
"N  c #C23838",
"B  c #070202",
"V  c #320F0F",
"C  c #B33434",
"Z  c #BB3636",
"A  c #962C2C",
"S  c #AD3333",
"D  c #9C2D2D",
"F  c #190707",
"G  c #7B2424",
"H  c #040101",
"J  c #0D0404",
"K  c #160606",
"L  c #A83131",
"P  c #080202",
"I  c #6A1F1F",
"U  c #170707",
"Y  c #421313",
"T  c #310E0E",
"R  c #0C0303",
"E  c #C33939",
"W  c #5D1B1B",
"Q  c #B73636",
"!  c #210A0A",
"~  c #722121",
"^  c #842626",
"/  c #BF3838",
"(  c #1F0909",
")  c #361010",
"_  c #BC3737",
"`  c #932B2B",
"'  c #120505",
"]  c #5C1B1B",
"[  c #BD3737",
"{  c #702020",
"}  c #BA3737",
"|  c #752222",
" . c #2C0D0D",
".. c #641D1D",
"X. c #1A0808",
"o. c #351010",
"O. c #210909",
"+. c #9D2E2E",
"@. c #5B1B1B",
"#. c #431414",
"$. c #330F0F",
"%. c #371010",
"&. c #1C0909",
"*. c #681F1F",
"=. c #391111",
"-. c #130606",
";. c #481515",
":. c #340F0F",
">. c #391010",
",. c #1D0909",
"<. c #842727",
"1. c #6E2020",
"2. c #3E1212",
"3. c #290C0C",
"4. c #A53030",
"5. c #7A2323",
"6. c #772323",
"7. c #7A2424",
"8. c #4C1616",
"9. c #B53434",
"0. c #3C1111",
"q. c #862727",
"w. c #441313",
"e. c #451414",
"r. c #2D0D0D",
"t. c #090303",
"y. c #BE3737",
"u. c #952B2B",
"i. c #691E1E",
"p. c #541818",
"a. c #A73030",
"s. c #3C1212",
"d. c #702121",
"f. c #4A1515",
"g. c #4E1717",
"h. c #BB3737",
"j. c #621D1D",
"k. c #C73A3A",
"l. c #691F1F",
"z. c #B43535",
"x. c #260B0B",
"c. c #8A2828",
"v. c #A73131",
"b. c #AA3232",
"n. c #4B1616",
"m. c #832626",
"M. c #8B2828",
"N. c #A93131",
"B. c #902A2A",
"V. c #160707",
"C. c #4E1616",
"Z. c #C63A3A",
"A. c #902929",
"S. c #140606",
"D. c #912A2A",
"F. c #1E0909",
"G. c #9B2D2D",
"H. c #4A1616",
"J. c #110505",
"K. c #BE3838",
"L. c #1B0808",
"P. c #C53A3A",
"I. c #581A1A",
"U. c #8E2929",
"Y. c #982C2C",
"T. c #8F2A2A",
"R. c #1C0808",
/* pixels */
"                                          @ $ # # # # # # # # # # # # # # + d                                 < # # # . *       ",
"                                          @ $ # # # # # # # # # # # # # # + d                                 < # # # . *       ",
"                                          @ $ # # # # # # # # # # # # # # + d                                 < # # # . *       ",
"                                          -.$ # # # # # # # # # # # # # # + d                                 < # # # . *       ",
"                  ( X X y t.      - * X ,.:.6 # # # # # # # # # # # # # # + j &.X X y H       ' y X y U       < # # # . *       ",
"                  9 . O E V       b c O O ; g # # # # # # # # # # # # # # # 3 O O O x F       l.N O x ^       < # # # . *       ",
"                  0 3 # r e       w % # # # # # # # # # # # # # # # # # # # # # # # $ @       i . # $ u       < # # # . *       ",
"                  0 3 # r e       w % # # # # # # # # # # # # # # # # # # # # # # # $ @       i . # $ u       < # # # . *       ",
"                  0 3 # r r.      ;.% # # # # # # # # # # # # # # # # # # # # # # # $ K       j.. # $ u       < # # # . *       ",
"                  0 3 # 3 4.j 1 j 0 3 # # # # # # # # # # # # # # # # # # # # # # # # f 1 1 j L 3 # $ u       < # # # . *       ",
"                  0 3 # # 3 + + + 3 # # # # # # # # # # # # # # # # # # # # # # # # # + + + + 3 # # $ u       < # # # . *       ",
"                  0 3 # # # # # # # # # # # # # # # # # # # # # # # # # # # # # # # # # # # # # # # $ u       < # # # . *       ",
"                  6 a % a 2 g # # # # # # + % % % % 3 # # # # # # g 9 a % % o # # # # # # # g C % % h q.      < # # # . *       ",
"                  ) >., M : = # # # # # 2 D $., , o.f S # # # # # 6 <.e , %.Y 2 # # # # # # ; i.T , p 3.      < # # # . *       ",
"                          5.$ # # # # # 9 `         +.+ # # # # # ; 1.      < = # # # # # # a w.        7     < # # # . *       ",
"                          u $ # # # # # 9 t         d + # # # # # ; q       - = # # # # # # % w               < # # # . *       ",
"                          ^ y.; O > g # 9 t         0 Q ; ; ; ; ; / 6.      - = # # # $ ; ; E b               < # # # . *       ",
"                          p.z 4 d.: 9 # 9 t         I | 4 4 4 4 4 7.8.      - = # # 2 v ~ 4 v T               < # # # . *       ",
"                        7         Y a # 9 t                           7     - = # # 9.J         7             < # # # . *       ",
"                                  w % # 9 t                                 - = # # $ @                       < # # # . *       ",
"                                  w % # 9 t                                 R = # # $ @                       < # # # . *       ",
"                                  w % # 9 u.k 5 5 5 7               k n 5 P U = # # $ @                       < # # # . *       ",
"                                  w % # # # 2 2 2 $ -               0._ 2 2 + # # # $ @                       < # # # . *       ",
"                                  w % # # # # # # = -               p % # # # # # # $ @                       < # # # . *       ",
"                                  w % # # # # # # = -               p % # # # # # # $ @                       < # # # . *       ",
"                                  b c O O O O O O Z m               2.c O O O O O O x F                       < O O O N s       ",
"                                  - * X X X X X X ! k               n * X X X X X X y H                       7 X X X y B       ",
"                                                                                                                                ",
"                                                                                                                                ",
"                                            7             7                                     7   7                           ",
"        ' ] & & & & & & & & & & & & & & I.H.                =.@.& & & & & & & & & & & & & & W s       @ ] & & & & & & & & & & & ",
"        s c o o o o o o o o o o o o o o _ d                 z l o o o o o o o o o o o o o o Z.C.      V P.o o o o o o o o o o o ",
"        * . # # # # # # # # # # # # # # 9 t                 q ; # # # # # # # # # # # # # # % w       e r # # # # # # # # # # # ",
"        X [ > > > > > > > > > > > > > > O Y.                q ; # # # # # # # # # # # = > > / n.      M K.> > > > > > > > > > > ",
"X X X R.) ` : : : : : : : : : : : : : : U.u L.X X ! k       q ; # # # # # # # # # # 3 B.M.: A p       x.A : : : : : : : : : : : ",
"O O O [ T.                                J.x O O Z m       q ; # # # # # # # # # # $ m         7                               ",
"# # # 6 8                                 @ $ # # = -       q ; # # # # # # # # # # $ @                                         ",
"# # # 6 8                                 @ $ # # = -       q ; # # # # # # # # # # $ @                                         ",
"# # # 6 8                                 @ $ # # = -       q ; # # # # # # # # # # $ @                                         ",
"# # # 6 8         D f 1 1 1 1 1 # W       @ $ # # = -       q ; # # # # # # # # # # $ @                .S 1 1 1 1 1 1 # O.      ",
"# # # 6 8         L 2 + + + + + % ..      @ $ # # = -       q ; # # # # # # # # # # $ @               M } + + + + + + % *       ",
"# # # 6 8         0 3 # # # # # . i       @ $ # # = -       q ; # # # # # # # # # # $ @               e r # # # # # # . *       ",
"# # # 6 8         0 3 # # # # # . i       @ $ # # = -       z l % % % % % % % % % % h X.              e r # # # # # # . *       ",
"# # # 6 8         0 3 # # # # # . i       @ $ # # = -       s p , , , , , , , , , , p P               e r # # # # # # . *       ",
"# # # 6 8         0 3 # # # # # . i       @ $ # # = -     7                                           e r # # # # # # . *       ",
"# # # 6 8         0 3 # # # # # . i       @ $ # # = -                                                 e r # # # # # # . *       ",
"# # # 6 8         2 O ; ; ; ; ; h *.      @ $ # # = -     7                                     7     V l ; ; ; ; ; ; h s       ",
"# # # 6 8         { 4 4 4 4 4 4 G #.      @ $ # # = -       s p , , , , , , , , , , , , , , s.@       X v 4 4 4 4 4 4 G @       ",
"# # # 6 8                           7     @ $ # # = -       z l % % % % % % % % % % % % % % k.g.    7                           ",
"# # # 6 8                                 @ $ # # = -       q ; # # # # # # # # # # # # # # % w                                 ",
"+ + + z.c.                                V.O + + C -       ~ Q + + + + + + + # # # # + + + h.f.                                ",
"1 1 1 v.m.  5 5 5 5 5 5 5 5 5 5 5 5 5 5 B ( N.1 1 a.J       I b.1 1 1 1 1 1 f # # # # f 1 1 + e.                                ",
"        y a 2 2 2 2 2 2 2 2 2 2 2 2 2 2 C A                                 R = # # $ K                                         ",
"        * . # # # # # # # # # # # # # # 9 t                                 - = # # $ @                                         ",
"        * . # # # # # # # # # # # # # # 9 t                                 - = # # $ @                                         ",
"        s N O O O O O O O O O O O O O O Z G.                                - = # # $ @                                         ",
"        B y X X X X X X X X X X X X X X F.e D.: : A.n                       - = # # $ @                                         ",
"                                          S.a > > O -                       - = # # $ @                                         ",
"                                          @ $ # # = -                       - = # # $ @                                         ",
"                                          @ $ # # = -                       - = # # $ @                                         "
};
